<?xml version="1.0" encoding="UTF-8" standalone="no"?>
<!-- Created with Inkscape (http://www.inkscape.org/) -->

<svg
   xmlns:dc="http://purl.org/dc/elements/1.1/"
   xmlns:cc="http://creativecommons.org/ns#"
   xmlns:rdf="http://www.w3.org/1999/02/22-rdf-syntax-ns#"
   xmlns:svg="http://www.w3.org/2000/svg"
   xmlns="http://www.w3.org/2000/svg"
   xmlns:sodipodi="http://sodipodi.sourceforge.net/DTD/sodipodi-0.dtd"
   xmlns:inkscape="http://www.inkscape.org/namespaces/inkscape"
   width="14in"
   height="17in"
   viewBox="0 0 355.60001 431.80002"
   version="1.1"
   id="svg8"
   inkscape:export-xdpi="261.01999"
   inkscape:export-ydpi="261.01999"
   inkscape:version="0.92.5 (2060ec1f9f, 2020-04-08)">
  <defs
     id="defs2" />
  <sodipodi:namedview
     id="base"
     pagecolor="#ffffff"
     bordercolor="#666666"
     borderopacity="1.0"
     inkscape:pageopacity="0.0"
     inkscape:pageshadow="2"
     inkscape:zoom="0.175"
     inkscape:cx="548.10042"
     inkscape:cy="1433.2432"
     inkscape:document-units="in"
     inkscape:current-layer="layer1"
     showgrid="false"
     units="in"
     inkscape:snap-global="false"
     showguides="false"
     inkscape:lockguides="true"
     inkscape:window-width="1920"
     inkscape:window-height="1025"
     inkscape:window-x="0"
     inkscape:window-y="27"
     inkscape:window-maximized="1" />
  <metadata
     id="metadata5">
    <rdf:RDF>
      <cc:Work
         rdf:about="">
        <dc:format>image/svg+xml</dc:format>
        <dc:type
           rdf:resource="http://purl.org/dc/dcmitype/StillImage" />
        <dc:title />
      </cc:Work>
    </rdf:RDF>
  </metadata>
  <g
     inkscape:groupmode="layer"
     id="layer5"
     inkscape:label="Bottom"
     sodipodi:insensitive="true">
    <rect
       style="opacity:1;vector-effect:none;fill:#ffffff;fill-opacity:1;stroke:#b3b3b3;stroke-width:0.46499997;stroke-linecap:butt;stroke-linejoin:miter;stroke-miterlimit:4;stroke-dasharray:none;stroke-dashoffset:0;stroke-opacity:1"
       id="rect5088"
       width="356.80954"
       height="433.16074"
       x="0.75595158"
       y="0.907143" />
  </g>
  <g
     inkscape:groupmode="layer"
     id="layer2"
     inkscape:label="Computer"
     sodipodi:insensitive="true">
    <path
       style="fill:#333333;stroke:#666666;stroke-width:2.5999999;stroke-linecap:butt;stroke-linejoin:miter;stroke-miterlimit:4;stroke-dasharray:none;stroke-opacity:1"
       d="M 80.321657,328.48444 V 279.70455"
       id="path158"
       inkscape:connector-curvature="0" />
    <path
       style="fill:#333333;stroke:#666666;stroke-width:2.5999999;stroke-linecap:butt;stroke-linejoin:miter;stroke-miterlimit:4;stroke-dasharray:none;stroke-opacity:1"
       d="M 88.260139,328.68194 V 279.90205"
       id="path158-5"
       inkscape:connector-curvature="0" />
    <path
       style="fill:#333333;stroke:#666666;stroke-width:2.5999999;stroke-linecap:butt;stroke-linejoin:miter;stroke-miterlimit:4;stroke-dasharray:none;stroke-opacity:1"
       d="M 96.953592,329.62688 V 280.84699"
       id="path158-9"
       inkscape:connector-curvature="0" />
    <path
       style="fill:#333333;stroke:#666666;stroke-width:2.5999999;stroke-linecap:butt;stroke-linejoin:miter;stroke-miterlimit:4;stroke-dasharray:none;stroke-opacity:1"
       d="M 105.64705,329.2489 V 280.46901"
       id="path158-4"
       inkscape:connector-curvature="0" />
    <path
       style="fill:#333333;stroke:#666666;stroke-width:2.5999999;stroke-linecap:butt;stroke-linejoin:miter;stroke-miterlimit:4;stroke-dasharray:none;stroke-opacity:1"
       d="M 113.20657,329.62688 V 280.84699"
       id="path158-90"
       inkscape:connector-curvature="0" />
    <path
       style="fill:#333333;stroke:#666666;stroke-width:2.5999999;stroke-linecap:butt;stroke-linejoin:miter;stroke-miterlimit:4;stroke-dasharray:none;stroke-opacity:1"
       d="M 118.87621,330.00486 V 281.22497"
       id="path158-91"
       inkscape:connector-curvature="0" />
    <path
       style="fill:#333333;stroke:#666666;stroke-width:2.5999999;stroke-linecap:butt;stroke-linejoin:miter;stroke-miterlimit:4;stroke-dasharray:none;stroke-opacity:1"
       d="M 125.67978,330.00486 V 281.22497"
       id="path158-7"
       inkscape:connector-curvature="0" />
    <path
       style="fill:#333333;stroke:#666666;stroke-width:2.5999999;stroke-linecap:butt;stroke-linejoin:miter;stroke-miterlimit:4;stroke-dasharray:none;stroke-opacity:1"
       d="M 132.29437,329.81587 V 281.03598"
       id="path158-71"
       inkscape:connector-curvature="0" />
    <path
       style="fill:#333333;stroke:#666666;stroke-width:2.5999999;stroke-linecap:butt;stroke-linejoin:miter;stroke-miterlimit:4;stroke-dasharray:none;stroke-opacity:1"
       d="M 138.48512,329.28133 V 280.50144"
       id="path158-1"
       inkscape:connector-curvature="0" />
    <path
       style="fill:#333333;stroke:#666666;stroke-width:2.5999999;stroke-linecap:butt;stroke-linejoin:miter;stroke-miterlimit:4;stroke-dasharray:none;stroke-opacity:1"
       d="m 146.45799,333.95902 48.7799,0.008"
       id="path158-59"
       inkscape:connector-curvature="0" />
    <path
       style="fill:#333333;stroke:#666666;stroke-width:2.5999999;stroke-linecap:butt;stroke-linejoin:miter;stroke-miterlimit:4;stroke-dasharray:none;stroke-opacity:1"
       d="m 145.70203,339.62867 48.77991,0.008"
       id="path158-59-7"
       inkscape:connector-curvature="0" />
    <path
       style="fill:#333333;stroke:#666666;stroke-width:2.5999999;stroke-linecap:butt;stroke-linejoin:miter;stroke-miterlimit:4;stroke-dasharray:none;stroke-opacity:1"
       d="m 146.08001,344.35337 48.7799,0.008"
       id="path158-59-76"
       inkscape:connector-curvature="0"
       inkscape:transform-center-x="4.1577383"
       inkscape:transform-center-y="-8.5044647" />
    <path
       style="fill:#333333;stroke:#666666;stroke-width:2.5999999;stroke-linecap:butt;stroke-linejoin:miter;stroke-miterlimit:4;stroke-dasharray:none;stroke-opacity:1"
       d="m 146.45799,351.91289 48.7799,0.008"
       id="path158-59-73"
       inkscape:connector-curvature="0"
       inkscape:transform-center-x="7.7485123"
       inkscape:transform-center-y="-7.5595242" />
    <path
       style="fill:#333333;stroke:#666666;stroke-width:2.5999999;stroke-linecap:butt;stroke-linejoin:miter;stroke-miterlimit:4;stroke-dasharray:none;stroke-opacity:1"
       d="m 145.32406,359.09444 48.7799,0.008"
       id="path158-59-6"
       inkscape:connector-curvature="0" />
    <path
       style="fill:#333333;stroke:#666666;stroke-width:2.5999999;stroke-linecap:butt;stroke-linejoin:miter;stroke-miterlimit:4;stroke-dasharray:none;stroke-opacity:1"
       d="m 145.70204,366.84295 48.7799,0.008"
       id="path158-59-5"
       inkscape:connector-curvature="0" />
    <path
       style="fill:#333333;stroke:#666666;stroke-width:2.5999999;stroke-linecap:butt;stroke-linejoin:miter;stroke-miterlimit:4;stroke-dasharray:none;stroke-opacity:1"
       d="m 144.25712,373.26387 48.7799,0.008"
       id="path158-59-63"
       inkscape:connector-curvature="0" />
    <path
       style="fill:#333333;stroke:#666666;stroke-width:2.5999999;stroke-linecap:butt;stroke-linejoin:miter;stroke-miterlimit:4;stroke-dasharray:none;stroke-opacity:1"
       d="m 144.79166,382.61831 48.7799,0.008"
       id="path158-59-9"
       inkscape:connector-curvature="0"
       inkscape:transform-center-x="3.2072345"
       inkscape:transform-center-y="-9.0871644" />
    <path
       style="fill:#333333;stroke:#666666;stroke-width:2.5999999;stroke-linecap:butt;stroke-linejoin:miter;stroke-miterlimit:4;stroke-dasharray:none;stroke-opacity:1"
       d="m 145.3262,391.70547 48.77991,0.008"
       id="path158-59-4"
       inkscape:connector-curvature="0" />
    <path
       style="fill:#333333;stroke:#666666;stroke-width:2.5999999;stroke-linecap:butt;stroke-linejoin:miter;stroke-miterlimit:4;stroke-dasharray:none;stroke-opacity:1"
       d="m 144.94313,396.93415 48.7799,0.008"
       id="path158-59-8"
       inkscape:connector-curvature="0" />
    <path
       style="fill:#333333;stroke:#666666;stroke-width:2.5999999;stroke-linecap:butt;stroke-linejoin:miter;stroke-miterlimit:4;stroke-dasharray:none;stroke-opacity:1"
       d="M 79.563333,447.14684 V 398.36695"
       id="path158-12"
       inkscape:connector-curvature="0" />
    <path
       style="fill:#333333;stroke:#666666;stroke-width:2.5999999;stroke-linecap:butt;stroke-linejoin:miter;stroke-miterlimit:4;stroke-dasharray:none;stroke-opacity:1"
       d="M 87.501815,447.34434 V 398.56445"
       id="path158-5-9"
       inkscape:connector-curvature="0" />
    <path
       style="fill:#333333;stroke:#666666;stroke-width:2.5999999;stroke-linecap:butt;stroke-linejoin:miter;stroke-miterlimit:4;stroke-dasharray:none;stroke-opacity:1"
       d="M 96.195268,448.28928 V 399.50939"
       id="path158-9-3"
       inkscape:connector-curvature="0" />
    <path
       style="fill:#333333;stroke:#666666;stroke-width:2.5999999;stroke-linecap:butt;stroke-linejoin:miter;stroke-miterlimit:4;stroke-dasharray:none;stroke-opacity:1"
       d="m 104.88872,447.91131 v -48.7799"
       id="path158-4-9"
       inkscape:connector-curvature="0" />
    <path
       style="fill:#333333;stroke:#666666;stroke-width:2.5999999;stroke-linecap:butt;stroke-linejoin:miter;stroke-miterlimit:4;stroke-dasharray:none;stroke-opacity:1"
       d="M 112.44825,448.28928 V 399.50939"
       id="path158-90-0"
       inkscape:connector-curvature="0" />
    <path
       style="fill:#333333;stroke:#666666;stroke-width:2.5999999;stroke-linecap:butt;stroke-linejoin:miter;stroke-miterlimit:4;stroke-dasharray:none;stroke-opacity:1"
       d="M 118.11789,448.66726 V 399.88737"
       id="path158-91-8"
       inkscape:connector-curvature="0" />
    <path
       style="fill:#333333;stroke:#666666;stroke-width:2.5999999;stroke-linecap:butt;stroke-linejoin:miter;stroke-miterlimit:4;stroke-dasharray:none;stroke-opacity:1"
       d="M 124.92146,448.66726 V 399.88737"
       id="path158-7-8"
       inkscape:connector-curvature="0" />
    <path
       style="fill:#333333;stroke:#666666;stroke-width:2.5999999;stroke-linecap:butt;stroke-linejoin:miter;stroke-miterlimit:4;stroke-dasharray:none;stroke-opacity:1"
       d="M 131.53605,448.47827 V 399.69838"
       id="path158-71-5"
       inkscape:connector-curvature="0" />
    <path
       style="fill:#333333;stroke:#666666;stroke-width:2.5999999;stroke-linecap:butt;stroke-linejoin:miter;stroke-miterlimit:4;stroke-dasharray:none;stroke-opacity:1"
       d="M 139.06315,447.14192 V 398.36203"
       id="path158-1-0"
       inkscape:connector-curvature="0" />
    <path
       style="fill:#333333;stroke:#666666;stroke-width:2.5999999;stroke-linecap:butt;stroke-linejoin:miter;stroke-miterlimit:4;stroke-dasharray:none;stroke-opacity:1"
       d="m 27.224431,332.95642 48.779893,0.008"
       id="path158-59-59"
       inkscape:connector-curvature="0" />
    <path
       style="fill:#333333;stroke:#666666;stroke-width:2.5999999;stroke-linecap:butt;stroke-linejoin:miter;stroke-miterlimit:4;stroke-dasharray:none;stroke-opacity:1"
       d="m 26.468471,338.62607 48.779903,0.008"
       id="path158-59-7-8"
       inkscape:connector-curvature="0" />
    <path
       style="fill:#333333;stroke:#666666;stroke-width:2.5999999;stroke-linecap:butt;stroke-linejoin:miter;stroke-miterlimit:4;stroke-dasharray:none;stroke-opacity:1"
       d="m 26.846452,343.35077 48.779892,0.008"
       id="path158-59-76-4"
       inkscape:connector-curvature="0"
       inkscape:transform-center-x="4.1577383"
       inkscape:transform-center-y="-8.5044647" />
    <path
       style="fill:#333333;stroke:#666666;stroke-width:2.5999999;stroke-linecap:butt;stroke-linejoin:miter;stroke-miterlimit:4;stroke-dasharray:none;stroke-opacity:1"
       d="m 27.224429,350.91029 48.779895,0.008"
       id="path158-59-73-8"
       inkscape:connector-curvature="0"
       inkscape:transform-center-x="7.7485123"
       inkscape:transform-center-y="-7.5595242" />
    <path
       style="fill:#333333;stroke:#666666;stroke-width:2.5999999;stroke-linecap:butt;stroke-linejoin:miter;stroke-miterlimit:4;stroke-dasharray:none;stroke-opacity:1"
       d="m 26.0905,358.09184 48.779894,0.008"
       id="path158-59-6-1"
       inkscape:connector-curvature="0" />
    <path
       style="fill:#333333;stroke:#666666;stroke-width:2.5999999;stroke-linecap:butt;stroke-linejoin:miter;stroke-miterlimit:4;stroke-dasharray:none;stroke-opacity:1"
       d="m 26.468476,365.84035 48.779898,0.008"
       id="path158-59-5-0"
       inkscape:connector-curvature="0" />
    <path
       style="fill:#333333;stroke:#666666;stroke-width:2.5999999;stroke-linecap:butt;stroke-linejoin:miter;stroke-miterlimit:4;stroke-dasharray:none;stroke-opacity:1"
       d="m 25.023562,372.26127 48.779892,0.008"
       id="path158-59-63-3"
       inkscape:connector-curvature="0" />
    <path
       style="fill:#333333;stroke:#666666;stroke-width:2.5999999;stroke-linecap:butt;stroke-linejoin:miter;stroke-miterlimit:4;stroke-dasharray:none;stroke-opacity:1"
       d="m 25.558101,381.6157 48.779893,0.008"
       id="path158-59-9-0"
       inkscape:connector-curvature="0"
       inkscape:transform-center-x="3.2072345"
       inkscape:transform-center-y="-9.0871644" />
    <path
       style="fill:#333333;stroke:#666666;stroke-width:2.5999999;stroke-linecap:butt;stroke-linejoin:miter;stroke-miterlimit:4;stroke-dasharray:none;stroke-opacity:1"
       d="m 26.092641,390.70287 48.779903,0.008"
       id="path158-59-4-4"
       inkscape:connector-curvature="0" />
    <path
       style="fill:#333333;stroke:#666666;stroke-width:2.5999999;stroke-linecap:butt;stroke-linejoin:miter;stroke-miterlimit:4;stroke-dasharray:none;stroke-opacity:1"
       d="m 25.709571,395.93154 48.779893,0.008"
       id="path158-59-8-4"
       inkscape:connector-curvature="0" />
    <rect
       style="opacity:1;vector-effect:none;fill:#008000;fill-opacity:1;stroke:#008000;stroke-width:0.52916664;stroke-linecap:butt;stroke-linejoin:miter;stroke-miterlimit:4;stroke-dasharray:none;stroke-dashoffset:0;stroke-opacity:1"
       id="rect152"
       width="73.327377"
       height="72.193451"
       x="72.952103"
       y="328.48248" />
  </g>
  <g
     inkscape:groupmode="layer"
     id="layer4"
     inkscape:label="Laptop">
    <path
       style="fill:#00ffff;stroke:#000000;stroke-width:3.66100001;stroke-linecap:butt;stroke-linejoin:miter;stroke-miterlimit:4;stroke-dasharray:none;stroke-opacity:1"
       d="m 29.399647,110.54202 8.55262,-50.781213 84.457183,8.55262 -10.15624,49.177613 z"
       id="path5030"
       inkscape:connector-curvature="0" />
    <path
       style="fill:#1a1a1a;stroke:#000000;stroke-width:0.27393752px;stroke-linecap:butt;stroke-linejoin:miter;stroke-opacity:1"
       d="M 28.371047,109.47867 0.28432746,131.38732 94.862107,143.14319 114.92402,116.42532"
       id="path5032"
       inkscape:connector-curvature="0" />
    <path
       style="fill:#ffffff;stroke:#4d4d4d;stroke-width:0.465;stroke-linecap:butt;stroke-linejoin:miter;stroke-miterlimit:4;stroke-dasharray:none;stroke-opacity:1"
       d="m 55.725697,67.110717 -8.01809,36.883213 48.37578,5.87991 8.552633,-38.219543 z"
       id="path5058"
       inkscape:connector-curvature="0" />
    <path
       style="fill:#333333;stroke:#333333;stroke-width:0.26458332px;stroke-linecap:butt;stroke-linejoin:miter;stroke-opacity:1"
       d="m 55.458417,67.110717 0.53453,-1.73726 49.311253,5.07813 -1.06908,1.60364"
       id="path5060"
       inkscape:connector-curvature="0" />
    <path
       style="fill:#ff0000;stroke:#ff0000;stroke-width:0.26458332px;stroke-linecap:butt;stroke-linejoin:miter;stroke-opacity:1"
       d="m 104.52834,70.567177 c -0.10488,0.0541 -0.22262,-0.0217 -0.33073,0 -0.24577,0.0492 -0.0472,0.0315 -0.23622,0.0945 -0.0148,0.005 -0.032,-0.004 -0.0473,0 -0.0483,0.0122 -0.0934,0.0352 -0.14173,0.0473 -0.0306,0.008 -0.0639,-0.008 -0.0945,0 -0.1196,0.0299 -0.22178,0.0873 -0.33073,0.14174 -0.063,0.0315 -0.13036,0.0554 -0.18897,0.0945 -0.0185,0.0124 -0.0273,0.0373 -0.0473,0.0472 -0.014,0.007 -0.0315,0 -0.0473,0 -0.0315,0.0159 -0.0652,0.0277 -0.0945,0.0473 -0.0185,0.0124 -0.0315,0.0315 -0.0472,0.0472 -0.0473,0.0473 -0.0945,0.0945 -0.14174,0.14174 -0.0159,0.0159 -0.0287,0.0349 -0.0473,0.0473 -0.0293,0.0196 -0.0696,0.0222 -0.0945,0.0472 -0.0851,0.0851 -0.0428,0.15069 0,0.23625 0.0159,0.0315 0.0222,0.0696 0.0472,0.0945 0.0649,0.0649 0.1561,0.0473 0.23625,0.0473 0.0159,0 0.0323,-0.005 0.0472,0 0.0334,0.0111 0.0652,0.0277 0.0945,0.0473 0.0451,0.0301 0.0344,0.0673 0.0945,0.0473 0.0858,-0.0286 0.0877,-0.0405 0.14174,-0.0945 0.0159,-0.0156 0.0273,-0.0373 0.0472,-0.0473 0.014,-0.007 0.032,0.004 0.0472,0 0.0483,-0.0122 0.0972,-0.0249 0.14174,-0.0472 0.0198,-0.0101 0.0273,-0.0373 0.0473,-0.0473 0.014,-0.007 0.0323,0.005 0.0473,0 0.0334,-0.0111 0.0611,-0.0361 0.0945,-0.0473 0.0151,-0.005 0.0323,0.005 0.0473,0 0.0334,-0.0111 0.063,-0.0315 0.0945,-0.0472 0.0315,-0.0159 0.0652,-0.0277 0.0945,-0.0473 0.0185,-0.0124 0.0273,-0.0373 0.0472,-0.0473 0.014,-0.007 0.0315,0 0.0473,0 0.0315,-0.0156 0.0652,-0.0277 0.0945,-0.0473 0.0201,-0.0132 0.13195,-0.12218 0.14174,-0.14173 0.007,-0.014 -0.005,-0.0323 0,-0.0472 0.0111,-0.0334 0.0342,-0.0618 0.0472,-0.0945 0.0185,-0.0463 0.0249,-0.0972 0.0473,-0.14174 0.0198,-0.0398 0.0746,-0.0547 0.0945,-0.0945 0.007,-0.014 -0.003,-0.0318 0,-0.0473 0.0127,-0.0637 0.0315,-0.126 0.0472,-0.189 z"
       id="path5062"
       inkscape:connector-curvature="0" />
    <path
       style="fill:#ff6600;stroke:#ff6600;stroke-width:0.26458332px;stroke-linecap:butt;stroke-linejoin:miter;stroke-opacity:1"
       d="m 102.59362,70.343057 c -0.10488,0.0541 -0.22262,-0.0217 -0.33073,0 -0.24577,0.0492 -0.0472,0.0315 -0.23622,0.0945 -0.0148,0.005 -0.032,-0.004 -0.0473,0 -0.0483,0.0122 -0.0934,0.0352 -0.14173,0.0473 -0.0306,0.008 -0.0639,-0.008 -0.0945,0 -0.1196,0.0299 -0.22178,0.0873 -0.33073,0.14174 -0.063,0.0315 -0.13036,0.0554 -0.18897,0.0945 -0.0185,0.0124 -0.0273,0.0373 -0.0473,0.0472 -0.014,0.007 -0.0315,0 -0.0473,0 -0.0315,0.0159 -0.0652,0.0277 -0.0945,0.0473 -0.0185,0.0124 -0.0315,0.0315 -0.0472,0.0472 -0.0473,0.0473 -0.0945,0.0945 -0.14174,0.14174 -0.0159,0.0159 -0.0287,0.0349 -0.0473,0.0473 -0.0293,0.0196 -0.0696,0.0222 -0.0945,0.0472 -0.0851,0.0851 -0.0428,0.15069 0,0.23625 0.0159,0.0315 0.0222,0.0696 0.0472,0.0945 0.0649,0.0649 0.1561,0.0473 0.23625,0.0473 0.0159,0 0.0323,-0.005 0.0472,0 0.0334,0.0111 0.0652,0.0277 0.0945,0.0473 0.0451,0.0301 0.0344,0.0673 0.0945,0.0473 0.0858,-0.0286 0.0877,-0.0405 0.14174,-0.0945 0.0159,-0.0156 0.0273,-0.0373 0.0472,-0.0473 0.014,-0.007 0.032,0.004 0.0472,0 0.0483,-0.0122 0.0972,-0.0249 0.14174,-0.0472 0.0198,-0.0101 0.0273,-0.0373 0.0473,-0.0473 0.014,-0.007 0.0323,0.005 0.0473,0 0.0334,-0.0111 0.0611,-0.0361 0.0945,-0.0473 0.0151,-0.005 0.0323,0.005 0.0473,0 0.0334,-0.0111 0.063,-0.0315 0.0945,-0.0472 0.0315,-0.0159 0.0652,-0.0277 0.0945,-0.0473 0.0185,-0.0124 0.0273,-0.0373 0.0472,-0.0473 0.014,-0.007 0.0315,0 0.0473,0 0.0315,-0.0156 0.0652,-0.0277 0.0945,-0.0473 0.0201,-0.0132 0.13195,-0.12218 0.14174,-0.14173 0.007,-0.014 -0.005,-0.0323 0,-0.0472 0.0111,-0.0334 0.0342,-0.0618 0.0472,-0.0945 0.0185,-0.0463 0.0249,-0.0972 0.0473,-0.14174 0.0198,-0.0398 0.0746,-0.0547 0.0945,-0.0945 0.007,-0.014 -0.003,-0.0318 0,-0.0473 0.0127,-0.0637 0.0315,-0.126 0.0472,-0.189 z"
       id="path5062-5"
       inkscape:connector-curvature="0" />
    <path
       style="fill:#00ff00;stroke:#00ff00;stroke-width:0.26458332px;stroke-linecap:butt;stroke-linejoin:miter;stroke-opacity:1"
       d="m 100.51475,70.059567 c -0.10488,0.0541 -0.22262,-0.0217 -0.33073,0 -0.245773,0.0492 -0.0472,0.0315 -0.236223,0.0945 -0.0148,0.005 -0.032,-0.004 -0.0473,0 -0.0483,0.0122 -0.0934,0.0352 -0.14173,0.0473 -0.0306,0.008 -0.0639,-0.008 -0.0945,0 -0.1196,0.0299 -0.22178,0.0873 -0.33073,0.14174 -0.063,0.0315 -0.13036,0.0554 -0.18897,0.0945 -0.0185,0.0124 -0.0273,0.0373 -0.0473,0.0472 -0.014,0.007 -0.0315,0 -0.0473,0 -0.0315,0.0159 -0.0652,0.0277 -0.0945,0.0473 -0.0185,0.0124 -0.0315,0.0315 -0.0472,0.0472 -0.0473,0.0473 -0.0945,0.0945 -0.14174,0.14174 -0.0159,0.0159 -0.0287,0.0349 -0.0473,0.0473 -0.0293,0.0196 -0.0696,0.0222 -0.0945,0.0472 -0.0851,0.0851 -0.0428,0.15069 0,0.23625 0.0159,0.0315 0.0222,0.0696 0.0472,0.0945 0.0649,0.0649 0.1561,0.0473 0.23625,0.0473 0.0159,0 0.0323,-0.005 0.0472,0 0.0334,0.0111 0.0652,0.0277 0.0945,0.0473 0.0451,0.0301 0.0344,0.0673 0.0945,0.0473 0.0858,-0.0286 0.0877,-0.0405 0.14174,-0.0945 0.0159,-0.0156 0.0273,-0.0373 0.0472,-0.0473 0.014,-0.007 0.032,0.004 0.0472,0 0.0483,-0.0122 0.0972,-0.0249 0.14174,-0.0472 0.0198,-0.0101 0.0273,-0.0373 0.0473,-0.0473 0.014,-0.007 0.0323,0.005 0.0473,0 0.0334,-0.0111 0.0611,-0.0361 0.0945,-0.0473 0.0151,-0.005 0.0323,0.005 0.0473,0 0.0334,-0.0111 0.063,-0.0315 0.0945,-0.0472 0.0315,-0.0159 0.0652,-0.0277 0.0945,-0.0473 0.0185,-0.0124 0.0273,-0.0373 0.0472,-0.0473 0.014,-0.007 0.0315,0 0.0473,0 0.0315,-0.0156 0.0652,-0.0277 0.0945,-0.0473 0.0201,-0.0132 0.13195,-0.12218 0.14174,-0.14173 0.007,-0.014 -0.005,-0.0323 0,-0.0472 0.0111,-0.0334 0.0342,-0.0618 0.0472,-0.0945 0.0185,-0.0463 0.0249,-0.0972 0.0473,-0.14174 0.0198,-0.0398 0.0746,-0.0547 0.0945,-0.0945 0.007,-0.014 -0.003,-0.0318 0,-0.0473 0.0127,-0.0637 0.0315,-0.126 0.0472,-0.189 z"
       id="path5062-9"
       inkscape:connector-curvature="0" />
    <path
       style="fill:none;stroke:#000000;stroke-width:0.26458335px;stroke-linecap:butt;stroke-linejoin:miter;stroke-opacity:1"
       d="m 52.06622,103.71667 c 0.0692,-0.10004 -0.03982,-0.59668 0,-0.75595 0.01709,-0.0683 0.05543,-0.13039 0.0945,-0.18899 0.02471,-0.0371 0.063,-0.063 0.09449,-0.0945 0.063,-0.063 0.125992,-0.126 0.188989,-0.18899 0.0315,-0.0315 0.05743,-0.0698 0.09449,-0.0945 0.117205,-0.0781 0.260771,-0.11085 0.377976,-0.18899 0.129995,-0.0867 0.09718,-0.14577 0.188989,-0.28348 0.02588,-0.0388 0.24466,-0.2576 0.28348,-0.28348 0.149926,-0.0999 0.366067,-0.12387 0.472472,-0.28348 0.1163,-0.17445 0.167182,-0.39252 0.283482,-0.56697 0.02471,-0.0371 0.06978,-0.0574 0.09449,-0.0945 0.03907,-0.0586 0.05542,-0.13039 0.09449,-0.18899 0.08924,-0.13387 0.221467,-0.14986 0.377976,-0.18899 0.03056,-0.008 0.06632,0.0141 0.0945,0 0.07968,-0.0398 0.114861,-0.13957 0.188986,-0.18898 0.117205,-0.0781 0.251984,-0.125997 0.377976,-0.188994 0.063,-0.0315 0.125995,-0.06299 0.188989,-0.09449 0.063,-0.0315 0.120661,-0.07741 0.18899,-0.09449 0.06111,-0.01527 0.125992,0 0.188986,0 0.216231,0 0.243642,0.01992 0.472472,-0.09449 0.03984,-0.01992 0.05465,-0.07458 0.09449,-0.0945 0.02117,-0.01058 0.355521,0 0.377976,0 0.04256,0 0.254725,0.01437 0.283483,0 0.03984,-0.01992 0.05465,-0.07457 0.09449,-0.09449 0.06038,-0.03019 0.301919,0.02535 0.377976,0 0.684461,-0.228153 -0.148979,0.02724 0.283482,-0.18899 0.06188,-0.03094 0.388615,0.02795 0.472472,0 0.06682,-0.02228 0.122169,-0.07222 0.188987,-0.09449 0.08386,-0.02795 0.410593,0.03094 0.472471,0 0.07968,-0.03984 0.109302,-0.149146 0.188987,-0.188986 0.02817,-0.01408 0.063,0 0.09449,0 0.0315,0 0.063,0 0.0945,0 0.157491,0 0.314979,0 0.472469,0 0.220488,0 0.440973,0 0.661459,0 0.063,0 0.127217,-0.01236 0.188989,0 0.795607,0.15912 0.0029,0.0016 0.377976,0.188986 0.06188,0.03094 0.388612,-0.02795 0.472469,0 0.06682,0.02228 0.122171,0.07222 0.188989,0.09449 0.05976,0.01992 0.125992,0 0.188987,0 0.220488,0 0.440973,0 0.661458,0 0.06209,0 0.230169,-0.01778 0.283483,0 0.684461,0.228156 -0.148979,-0.02724 0.283482,0.18899 0.02876,0.01437 0.240927,0 0.283483,0 0.535466,0 1.070932,0 1.606399,0 0.15749,0 0.314981,0 0.472469,0 0.06209,0 0.230169,0.01778 0.283482,0 0.197184,-0.06573 0.275289,-0.217755 0.472472,-0.283483 0.05976,-0.01992 0.129223,0.01992 0.188987,0 0.342569,-0.114189 0.06725,-0.04483 0.283482,-0.188986 0.174451,-0.116303 0.392515,-0.167183 0.566965,-0.283483 0.03706,-0.02471 0.063,-0.063 0.09449,-0.0945 0.063,-0.0315 0.130386,-0.05542 0.188989,-0.09449 0.03706,-0.02471 0.063,-0.063 0.09449,-0.09449 0.0315,-0.0315 0.06978,-0.05743 0.09449,-0.09449 0.03907,-0.05861 0.05542,-0.130386 0.09449,-0.188989 0.02471,-0.03706 0.063,-0.063 0.0945,-0.09449 0.09449,-0.0945 0.188986,-0.18899 0.283482,-0.283483 0.0315,-0.0315 0.08041,-0.05224 0.09449,-0.09449 0.01992,-0.05976 -0.01527,-0.127873 0,-0.188989 0.03416,-0.136658 0.144444,-0.244343 0.188986,-0.377976 0.01778,-0.05331 0,-0.22139 0,-0.283483 0,-0.220485 0,-0.440973 0,-0.661458 0,-0.188989 0,-0.377976 0,-0.566965 0,-0.063 0,-0.125992 0,-0.188987 0,-0.0315 0.0099,-0.06461 0,-0.0945 -0.114189,-0.342566 -0.04483,-0.06725 -0.188986,-0.28348 -0.03907,-0.05861 -0.05542,-0.130386 -0.09449,-0.188989 -0.08666,-0.129995 -0.145777,-0.09718 -0.283482,-0.188989 -0.03707,-0.02471 -0.063,-0.063 -0.0945,-0.09449 -0.108114,-0.108114 -0.111858,-0.131781 -0.28348,-0.188987 -0.08505,-0.02835 -0.198438,0.02835 -0.283483,0 -0.684461,-0.228155 0.148979,0.02724 -0.283482,-0.188989 -0.718251,-0.359127 -0.05584,-0.01397 -0.377976,-0.09449 -0.09663,-0.02416 -0.191003,-0.0575 -0.283482,-0.0945 -0.122987,0.05259 -0.206129,-0.15031 -0.283483,-0.188987 -0.02817,-0.01408 -0.06394,0.0076 -0.09449,0 -0.09663,-0.02416 -0.191003,-0.0575 -0.283483,-0.09449 -0.063,-0.0315 -0.125992,-0.063 -0.188989,-0.0945 -0.0315,0 -0.06461,0.0099 -0.09449,0 -0.06682,-0.02228 -0.122172,-0.07222 -0.18899,-0.09449 -0.05976,-0.01992 -0.129222,0.01992 -0.188986,0 -0.684461,-0.228153 0.148979,0.02724 -0.283483,-0.18899 -0.05168,-0.02582 -0.219175,0.01609 -0.283482,0 -0.09663,-0.02416 -0.186852,-0.07033 -0.283483,-0.09449 -0.225033,-0.05626 0.06808,0.139885 -0.283482,-0.09449 -0.139044,-0.0927 -0.23893,-0.285279 -0.377976,-0.377976 -0.247698,-0.165135 -0.165132,-0.03532 -0.472469,-0.188989 -0.03984,-0.01992 -0.05743,-0.06978 -0.09449,-0.09449 -0.685138,-0.342569 0.149408,0.0996 -0.283482,-0.188989 -0.0586,-0.03907 -0.130387,-0.05542 -0.188989,-0.09449 -0.03706,-0.02471 -0.05743,-0.06978 -0.09449,-0.09449 -0.0586,-0.03907 -0.130386,-0.05543 -0.188989,-0.0945 -0.139044,-0.0927 -0.238929,-0.285279 -0.377976,-0.377976 -0.0586,-0.03907 -0.130384,-0.05542 -0.188986,-0.09449 -0.07413,-0.04942 -0.125992,-0.125991 -0.188989,-0.188989 -0.05558,-0.05558 -0.334219,-0.356097 -0.377976,-0.377976 -0.08909,-0.04454 -0.194392,-0.04995 -0.283483,-0.09449 -0.03984,-0.01992 -0.06299,-0.063 -0.09449,-0.09449 -0.063,-0.063 -0.125992,-0.125992 -0.188989,-0.188989 -0.09449,-0.09449 -0.214728,-0.168892 -0.283483,-0.283483 -0.05124,-0.08541 -0.04995,-0.194392 -0.09449,-0.283482 -0.05079,-0.101577 -0.1382,-0.181904 -0.188989,-0.28348 -0.04454,-0.08909 -0.04325,-0.198073 -0.09449,-0.283483 -0.04584,-0.0764 -0.14315,-0.112596 -0.188986,-0.188989 -0.05125,-0.08541 -0.0575,-0.191 -0.0945,-0.283483 -0.0782,-0.195503 -0.20528,-0.371459 -0.283483,-0.566962 -0.03699,-0.09248 -0.0575,-0.191003 -0.09449,-0.283483 -0.05232,-0.130788 -0.144444,-0.244342 -0.188987,-0.377975 -0.01,-0.02988 0,-0.063 0,-0.0945 0,-0.09449 0.01336,-0.189937 0,-0.283483 -0.01836,-0.128564 -0.07314,-0.249872 -0.0945,-0.377976 -0.02588,-0.155347 0.02228,-0.316563 0,-0.472469 -0.02966,-0.207642 -0.121676,-0.459526 -0.188986,-0.661458 -0.0315,-0.09449 -0.07496,-0.185812 -0.0945,-0.283483 -0.01236,-0.06177 0,-0.125992 0,-0.188989 0,-0.188987 0,-0.377976 0,-0.566962 0,-0.283483 0,-0.566965 0,-0.850448 0,-0.09449 -0.01336,-0.189936 0,-0.283482 0.02967,-0.20764 0.121679,-0.459526 0.188989,-0.661459 0.063,-0.188986 0.125992,-0.377976 0.188989,-0.566962 0.0315,-0.0945 0.0575,-0.191003 0.09449,-0.283483 0.02617,-0.06539 0.07222,-0.122171 0.09449,-0.188989 0.01992,-0.05976 -0.01527,-0.127873 0,-0.188987 0.03073,-0.122936 0.110784,-0.355163 0.188989,-0.472471 0.02471,-0.03706 0.063,-0.063 0.09449,-0.09449 0.125991,-0.125992 0.238842,-0.266668 0.377975,-0.377975 0.177364,-0.141891 0.392475,-0.232569 0.566965,-0.377976 0.102661,-0.08555 0.176575,-0.203303 0.283483,-0.283483 0.0011,-7.94e-4 0.940321,-0.564025 0.944941,-0.566965 0.383249,-0.243887 0.741537,-0.527058 1.133927,-0.755951 0.608984,-0.355241 0.492049,-0.183793 1.039434,-0.566966 0.165227,-0.11566 0.307243,-0.262318 0.472472,-0.377975 0.150461,-0.105326 0.322006,-0.17816 0.472469,-0.283483 0.165227,-0.11566 0.302316,-0.269695 0.472469,-0.377976 0.178263,-0.11344 0.388705,-0.170042 0.566965,-0.283482 0.170157,-0.108281 0.311121,-0.256966 0.472472,-0.377976 0.09085,-0.06814 0.188987,-0.125992 0.28348,-0.188989 0.0945,-0.063 0.181906,-0.1382 0.283483,-0.188987 0.08909,-0.04454 0.194392,-0.04995 0.283482,-0.0945 0.101579,-0.05079 0.181904,-0.138197 0.283483,-0.188986 0.08909,-0.04455 0.198072,-0.04325 0.283482,-0.09449 0.07639,-0.04584 0.125992,-0.125994 0.188987,-0.188989 0.0315,-0.0315 0.05465,-0.07457 0.0945,-0.09449 0.06262,-0.03131 0.298778,0.0264 0.377976,0 0.06682,-0.02228 0.119925,-0.08068 0.188986,-0.0945 0.09266,-0.01852 0.188989,0 0.283483,0 0.125992,0 0.252756,0.01392 0.377976,0 0.159628,-0.01773 0.314981,-0.063 0.472471,-0.09449 0.188987,-0.0315 0.37632,-0.07543 0.566965,-0.09449 0.125365,-0.01254 0.251984,0 0.377976,0 0.157491,0 0.314979,0 0.472469,0 0.566965,0 1.13393,0 1.700893,0 1.354415,0 2.70883,0 4.063246,0 0.472469,0 0.944938,0 1.41741,0 0.125992,0 0.252754,-0.01392 0.377976,0 0.159625,0.01773 0.314981,0.063 0.472469,0.09449 1.424987,0.284998 -0.350578,-0.07791 0.850447,0.188989 0.224682,0.04993 0.619996,0.11217 0.850448,0.188986 0.160917,0.05364 0.310348,0.139105 0.472469,0.18899 0.165751,0.051 1.223664,0.288554 1.41741,0.377975 0.20623,0.09518 0.360736,0.282792 0.566965,0.377976 0.208203,0.09609 0.442291,0.121552 0.661458,0.188989 0.190403,0.05859 0.383077,0.112369 0.566966,0.188987 0.314978,0.131241 0.629959,0.332481 0.94494,0.472472 0.310005,0.137779 0.641512,0.226261 0.944939,0.377976 0.101578,0.05079 0.188989,0.125992 0.283482,0.188986 0.0945,0.063 0.194802,0.118044 0.283483,0.188989 0.06957,0.05566 0.112593,0.143153 0.188989,0.18899 0.08541,0.05124 0.19807,0.04325 0.283482,0.09449 0.07639,0.04584 0.117716,0.135533 0.188987,0.188987 0.05635,0.04226 0.125992,0.063 0.188989,0.0945 0.063,0.06299 0.117716,0.135532 0.188987,0.188986 0.05635,0.04226 0.132643,0.05224 0.188989,0.0945 0.07127,0.05345 0.125992,0.125992 0.188987,0.188987 0.063,0.063 0.143152,0.112593 0.188989,0.188989 0.05125,0.08541 0.063,0.188986 0.09449,0.283482 0.0945,0.28348 0.188989,0.566963 0.283483,0.850445 0.09449,0.283483 0.188989,0.566965 0.283482,0.850448 0.0315,0.09449 0.07496,0.185809 0.09449,0.283482 0.01236,0.06177 0,0.125992 0,0.188987 0,0.188989 0,0.377976 0,0.566965 0,0.472469 0,0.944941 0,1.41741 0,0.283483 0,0.566965 0,0.850448 0,0.09449 0,0.188986 0,0.283482 0,0.09449 0.01336,0.189937 0,0.28348 -0.01836,0.128566 -0.063,0.251984 -0.09449,0.377979 -0.06299,0.251983 -0.146288,0.499745 -0.188989,0.755951 -0.02588,0.155348 0.02228,0.316564 0,0.472469 -0.04578,0.320482 -0.181562,0.639189 -0.28348,0.944941 -0.0315,0.09449 -0.07496,0.185812 -0.0945,0.283483 -0.01236,0.06177 0.01037,0.126849 0,0.188989 -0.01513,0.09083 -0.132815,0.549116 -0.188986,0.661458 -0.05079,0.101576 -0.130559,0.186098 -0.18899,0.28348 -0.03624,0.0604 -0.05826,0.128596 -0.09449,0.188989 -0.05843,0.09738 -0.130559,0.186098 -0.188989,0.283483 -0.03624,0.06039 -0.05223,0.132641 -0.09449,0.188987 -0.05345,0.07127 -0.135533,0.117718 -0.18899,0.188989 -0.04226,0.05634 -0.04469,0.139184 -0.09449,0.188989 -0.0498,0.0498 -0.132641,0.05223 -0.188987,0.09449 -0.578638,0.578636 0.159367,-0.119528 -0.377978,0.283483 -0.07127,0.05345 -0.117716,0.135533 -0.188987,0.188986 -0.05635,0.04226 -0.132643,0.05224 -0.188989,0.0945 -0.07127,0.05345 -0.117716,0.135533 -0.188986,0.188987 -0.05635,0.04226 -0.128593,0.05826 -0.18899,0.09449 -0.09738,0.05843 -0.181903,0.1382 -0.283482,0.188989 -0.08909,0.04455 -0.191929,0.05526 -0.283483,0.09449 -0.129474,0.05549 -0.248502,0.133501 -0.377976,0.188989 -0.09155,0.03924 -0.191928,0.05526 -0.283482,0.09449 -0.129474,0.05549 -0.248502,0.133501 -0.377976,0.18899 -0.09155,0.03924 -0.191929,0.05526 -0.283482,0.09449 -0.258948,0.110977 -0.498507,0.263557 -0.755952,0.377976 -0.155001,0.06889 -0.313648,0.129429 -0.472469,0.188989 -0.278921,0.104595 -0.567825,0.189275 -0.850448,0.283482 -0.09449,0.0315 -0.194392,0.04995 -0.283482,0.09449 -0.371642,0.185819 -0.171109,0.204311 -0.566963,0.283482 -0.06177,0.01236 -0.126849,-0.01037 -0.188989,0 -0.128103,0.02135 -0.250629,0.06902 -0.377976,0.09449 -0.03089,0.0062 -0.063,0 -0.09449,0 -0.125992,0 -0.251984,0 -0.377979,0 -0.06299,0 -0.127214,-0.01236 -0.188986,0 -0.79561,0.15912 -0.0029,0.0016 -0.377976,0.188989 -0.05425,0.02712 -0.392036,-0.02011 -0.472472,0 -0.06833,0.01709 -0.122168,0.07222 -0.188986,0.09449 -0.05976,0.01992 -0.129225,-0.01992 -0.18899,0 -0.342566,0.114189 -0.06725,0.04483 -0.283482,0.188987 -0.477364,0.318243 -0.0021,7.93e-4 -0.283483,0.0945 -0.06681,0.02228 -0.125992,0.06299 -0.188986,0.09449 -0.063,0.0315 -0.130387,0.05542 -0.188989,0.09449 -0.03706,0.02471 -0.05465,0.07457 -0.09449,0.0945 -0.307337,0.153667 -0.224771,0.02387 -0.472469,0.188987 -0.139046,0.0927 -0.238932,0.285279 -0.377978,0.377975 -0.0586,0.03907 -0.130384,0.05542 -0.188987,0.0945 -0.04582,0.03054 -0.441928,0.426654 -0.472472,0.47247 -0.03907,0.0586 -0.05542,0.130384 -0.09449,0.188989 -0.144153,0.216231 -0.0748,-0.05909 -0.188987,0.28348 -0.01778,0.05331 0,0.22139 0,0.283482 0,0.157491 0,0.314981 0,0.472472 0,0.063 -0.01992,0.129225 0,0.188987 0.02228,0.06682 0.07222,0.122171 0.09449,0.188989 0.02167,0.06499 -0.02788,0.227729 0,0.283482 0.03984,0.07968 0.13957,0.114861 0.188986,0.188987 0.03907,0.0586 0.05543,0.130387 0.0945,0.188989 0.0927,0.139044 0.285279,0.238929 0.377976,0.377976 0.03907,0.0586 0.05542,0.130384 0.09449,0.188989 0.02471,0.03706 0.06979,0.05743 0.09449,0.09449 0.03907,0.0586 0.04469,0.139185 0.0945,0.188987 0.0498,0.0498 0.139184,0.04469 0.188986,0.0945 0.0498,0.0498 0.04469,0.139184 0.0945,0.188987 0.0498,0.0498 0.130384,0.05542 0.188987,0.0945 0.03706,0.02471 0.063,0.06299 0.09449,0.09449 0.063,0.0315 0.130387,0.05542 0.188989,0.09449 0.174392,0.116263 0.0146,0.07273 0.18899,0.188989 0.0586,0.03907 0.130384,0.05542 0.188986,0.09449 0.216231,0.144153 -0.05909,0.0748 0.283483,0.188989 0.02988,0.0099 0.063,0 0.09449,0 0.0945,0.0315 0.191003,0.0575 0.283482,0.09449 0.130789,0.05232 0.241319,0.154824 0.377976,0.188987 0.09167,0.02291 0.18899,0 0.283483,0 0.251984,0 0.503968,0 0.755951,0 0.220488,0 0.440974,0 0.661459,0 0.063,0 0.126849,0.01037 0.188989,0 0.128103,-0.02135 0.249412,-0.07613 0.377976,-0.09449 0.09355,-0.01336 0.189939,0.01336 0.283482,0 0.128564,-0.01836 0.251198,-0.06632 0.377976,-0.09449 0.156784,-0.03484 0.316656,-0.05554 0.472472,-0.09449 0.09663,-0.02416 0.185809,-0.07496 0.28348,-0.0945 0.06177,-0.01236 0.125994,0 0.188989,0 0.09449,0 0.188989,0 0.283483,0 0.06299,0 0.127873,0.01527 0.188986,0 0.17103,0.05695 0.175744,-0.153075 0.283483,-0.188987 0.05226,-0.01741 0.471805,0 0.566965,0 0.283482,0 0.566965,0 0.850447,0 0.063,0 0.125992,0 0.188987,0 0.0315,0 0.06394,-0.0076 0.09449,0 0.954733,0.238681 -0.06824,-0.03412 0.377979,0.188987 0.02817,0.01408 0.06299,0 0.09449,0 0.063,0 0.127873,-0.01527 0.188987,0 0.06833,0.01709 0.122171,0.07222 0.188989,0.0945 0.02988,0.0099 0.06394,-0.0076 0.09449,0 0.417865,0.104465 0.146619,0.05864 0.472472,0.188986 0.09248,0.037 0.191,0.0575 0.283482,0.09449 0.06539,0.02617 0.123593,0.06833 0.188987,0.09449 0.184962,0.074 0.382003,0.115 0.566965,0.18899 0.130789,0.0523 0.247187,0.13667 0.377976,0.18899 0.09248,0.037 0.200604,0.0392 0.283482,0.0945 0.02619,0.0175 -0.01408,0.0663 0,0.0945 0.04188,0.0838 0.226137,0.19747 0.283483,0.28349 0.03907,0.0586 0.063,0.12599 0.09449,0.18899 0.0315,0.063 0.05542,0.13038 0.09449,0.18898 0.04942,0.0741 0.149145,0.10931 0.188989,0.18899 0.01437,0.0288 0,0.24093 0,0.28348 0,0.22049 0,0.44097 0,0.66146 0,0.69296 0,1.38591 0,2.07887 0,0.22049 0,0.44097 0,0.66146 0,0.12599 -0.02471,0.25443 0,0.37798 0.03892,0.19461 0.104992,0.30448 0.188986,0.47247 0.0315,0.063 0.07222,0.12217 0.0945,0.18898 0.0099,0.0299 0,0.063 0,0.0945 0,0.0945 0,0.18899 0,0.28348 0,0.28348 0,0.56696 0,0.85045 0,0.0621 -0.01778,0.23017 0,0.28348 0.04455,0.13363 0.144442,0.24434 0.188987,0.37798 0.0099,0.0299 0,0.063 0,0.0945 0,0.063 0,0.12599 0,0.18899 0,0.22048 0,0.44097 0,0.66146"
       id="path898"
       inkscape:connector-curvature="0" />
    <path
       style="fill:none;stroke:#000000;stroke-width:0.26458335px;stroke-linecap:butt;stroke-linejoin:miter;stroke-opacity:1"
       d="m 83.910717,108.25238 c 0.063,-0.12599 0.136673,-0.24719 0.188987,-0.37797 0.01169,-0.0292 -0.0076,-0.0639 0,-0.0945 0.04832,-0.19326 0.149921,-0.37162 0.188989,-0.56696 0.03634,-0.18172 -0.03634,-0.38525 0,-0.56696 0.01953,-0.0977 0.07034,-0.18686 0.09449,-0.28349 0.0076,-0.0306 0,-0.063 0,-0.0945 0,-0.063 0,-0.126 0,-0.18899 0,-0.12599 0,-0.25198 0,-0.37798 0,-0.0739 0.01723,-0.6098 0,-0.66145 -0.02228,-0.0668 -0.07222,-0.12218 -0.09449,-0.18899 -0.01,-0.0299 0.01408,-0.0663 0,-0.0945 -0.009,-0.0181 -0.359889,-0.36893 -0.377976,-0.37797 -0.02817,-0.0141 -0.063,0 -0.0945,0 -0.06299,0 -0.129222,0.0199 -0.188986,0 -0.04226,-0.0141 -0.063,-0.063 -0.09449,-0.0945 -0.0315,-0.0315 -0.06979,-0.0574 -0.0945,-0.0945 -0.03907,-0.0586 -0.05542,-0.13039 -0.09449,-0.18899 -0.05436,-0.0815 -0.209674,-0.20967 -0.283482,-0.28348 -0.04975,-0.0497 -0.233014,-0.25825 -0.283483,-0.28348 -0.02817,-0.0141 -0.06632,0.0141 -0.09449,0 -0.03984,-0.0199 -0.05465,-0.0746 -0.09449,-0.0945 -0.02817,-0.0141 -0.063,0 -0.09449,0 -0.063,-0.0315 -0.130385,-0.0554 -0.188987,-0.0945 -0.216231,-0.14416 0.05909,-0.0748 -0.283483,-0.18899 -0.100409,-0.0335 -0.277566,0.0335 -0.377975,0 -0.684462,-0.22815 0.148979,0.0272 -0.283483,-0.18899 -0.03417,-0.0171 -0.406747,0 -0.472469,0 -0.157491,0 -0.314981,0 -0.472472,0 -0.06209,0 -0.230169,-0.0178 -0.283482,0 -0.06682,0.0223 -0.130384,0.0554 -0.188987,0.0945 -0.07413,0.0494 -0.114861,0.13957 -0.188989,0.18898 -0.0586,0.0391 -0.139184,0.0447 -0.188987,0.0945 -0.0498,0.0498 -0.04469,0.13918 -0.0945,0.18899 -0.0498,0.0498 -0.139184,0.0447 -0.188986,0.0945 -0.0498,0.0498 -0.05542,0.13039 -0.0945,0.18899 -0.04942,0.0741 -0.149146,0.1093 -0.188987,0.18899 -0.02817,0.0563 0.01992,0.12922 0,0.18899 -0.05721,0.17162 -0.08087,0.17536 -0.188989,0.28348 -0.0315,0.0315 -0.07457,0.0546 -0.09449,0.0945 -0.01408,0.0282 0,0.063 0,0.0945 -0.0315,0.063 -0.05542,0.13039 -0.09449,0.18899 -0.02471,0.0371 -0.063,0.063 -0.0945,0.0945 -0.09449,0.0945 -0.188986,0.18899 -0.283479,0.28348 -0.063,0.063 -0.139571,0.11486 -0.18899,0.18899 -0.03907,0.0586 -0.05542,0.13038 -0.09449,0.18899 -0.02471,0.0371 -0.07457,0.0546 -0.0945,0.0945 -0.01408,0.0282 0,0.063 0,0.0945 -0.0315,0.063 -0.05542,0.13039 -0.09449,0.18899 -0.04652,0.0698 -0.142468,0.11921 -0.188987,0.18899 -0.03907,0.0586 -0.05543,0.13038 -0.0945,0.18899 -0.02471,0.0371 -0.07457,0.0546 -0.09449,0.0945 -0.01437,0.0288 0,0.24093 0,0.28349 0,0.0315 0,0.063 0,0.0945 0,0.0315 0.01408,0.0663 0,0.0945 -0.01992,0.0399 -0.07457,0.0546 -0.09449,0.0945 -0.02817,0.0563 0.02817,0.13264 0,0.18898 -0.01992,0.0399 -0.063,0.063 -0.0945,0.0945"
       id="path900"
       inkscape:connector-curvature="0" />
    <path
       style="fill:none;stroke:#000000;stroke-width:0.26458335px;stroke-linecap:butt;stroke-linejoin:miter;stroke-opacity:1"
       d="m 55.468008,104.37813 c 1.084379,-0.8675 0.01736,-0.10317 0.755952,-0.47247 0.101579,-0.0508 0.181903,-0.1382 0.283482,-0.18899 0.08909,-0.0445 0.188987,-0.063 0.283483,-0.0945 0.09449,-0.0315 0.188986,-0.063 0.283482,-0.0945 0.940192,-0.3134 -0.222726,0.0891 0.472469,-0.18899 0.09248,-0.037 0.191001,-0.0575 0.283483,-0.0945 0.193593,-0.0774 0.369303,-0.2176 0.566965,-0.28348 0.02988,-0.01 0.06461,0.01 0.09449,0 0.133636,-0.0446 0.24434,-0.14445 0.377976,-0.18899 0.02988,-0.01 0.06632,0.0141 0.09449,0 0.03984,-0.0199 0.05465,-0.0746 0.0945,-0.0945 0.04211,-0.0211 0.344284,0.007 0.377976,0 0.795608,-0.15913 0.0029,-0.002 0.377976,-0.18899 0.02817,-0.0141 0.063,0 0.09449,0 0.09449,0 0.190275,0.0155 0.283483,0 0.09825,-0.0164 0.185811,-0.075 0.283482,-0.0945 0.06177,-0.0123 0.125992,0 0.188987,0 0.157491,0 0.314981,0 0.472472,0 0.188986,0 0.377976,0 0.566965,0 0.125992,0 0.254428,-0.0247 0.377976,0 0.09767,0.0195 0.186848,0.0703 0.283482,0.0945 0.104524,0.0261 0.272645,-0.0175 0.377976,0 0.330372,0.0551 0.623559,0.20313 0.944941,0.28348 0.08261,0.0207 0.517551,-0.0247 0.566962,0 0.03984,0.0199 0.063,0.063 0.0945,0.0945 0.21666,0.21666 -0.03984,-0.0598 0.188987,0.28348 0.02471,0.0371 0.07457,0.0547 0.09449,0.0945 0.01408,0.0282 0,0.063 0,0.0945 0,0.0315 0,0.063 0,0.0945 0,0.18899 0,0.37797 0,0.56696 0,0.0528 0.0186,0.41671 0,0.47247 -0.228153,0.68446 0.02724,-0.14898 -0.188987,0.28348 -0.03264,0.0653 0.03317,0.4393 0,0.47247 -0.02228,0.0223 -0.063,0 -0.09449,0"
       id="path902"
       inkscape:connector-curvature="0" />
    <path
       style="fill:none;stroke:#000000;stroke-width:0.26458335px;stroke-linecap:butt;stroke-linejoin:miter;stroke-opacity:1"
       d="m 68.319199,96.913097 c 0.251984,0 0.503968,0 0.755952,0 0.0315,0 0.06361,0.0062 0.09449,0 0.179205,-0.03584 0.481336,-0.116938 0.661459,-0.188987 0.06539,-0.02617 0.119925,-0.08068 0.188989,-0.0945 0.09266,-0.01852 0.189936,0.01336 0.283482,0 0.128564,-0.01836 0.249873,-0.07314 0.377976,-0.09449 0.124278,-0.02072 0.254431,0.02471 0.377976,0 0.491577,-0.09831 0.09449,-0.063 0.472469,-0.188987 0.08956,-0.02985 0.382916,0.02985 0.472472,0 0.06682,-0.02228 0.122171,-0.07222 0.188986,-0.0945 0.06122,-0.0204 0.395108,0 0.472472,0 0.15647,0 0.533458,-0.02133 0.661459,0 0.09825,0.01638 0.185811,0.07496 0.283482,0.0945 0.06177,0.01236 0.125992,0 0.188987,0 0.251984,0 0.503967,0 0.755951,0 0.566965,0 1.13393,0 1.700895,0"
       id="path904"
       inkscape:connector-curvature="0" />
    <path
       style="fill:none;stroke:#000000;stroke-width:0.26458335px;stroke-linecap:butt;stroke-linejoin:miter;stroke-opacity:1"
       d="m 80.130954,100.0314 c 0.109828,0.20432 0.417557,0.13407 0.566965,0.28348 0.0498,0.0498 0.04469,0.13919 0.09449,0.18899 0.229508,0.22951 0.138758,-0.0281 0.283483,0.18899 0.134834,0.20225 0.09449,0.33926 0.09449,0.56696 0,0.0315 -0.0076,0.0639 0,0.0945 0.238683,0.95473 -0.03412,-0.0683 0.188989,0.37797 0.01709,0.0342 0,0.40675 0,0.47247 0,0.0315 -0.02228,0.0722 0,0.0945 0.02228,0.0223 0.07222,-0.0223 0.09449,0 0.0038,0.004 0,0.34327 0,0.37798"
       id="path906"
       inkscape:connector-curvature="0" />
    <path
       style="fill:none;stroke:#000000;stroke-width:0.26458335px;stroke-linecap:butt;stroke-linejoin:miter;stroke-opacity:1"
       d="m 61.988096,102.48825 c 0.125994,-0.0945 0.251986,-0.18899 0.377978,-0.28349 0.0315,-0.063 0.04469,-0.13918 0.09449,-0.18898 0.0498,-0.0498 0.139184,-0.0447 0.188987,-0.0945 0.0498,-0.0498 0.05543,-0.13038 0.0945,-0.18899 0.02471,-0.0371 0.06978,-0.0574 0.09449,-0.0945 0.03907,-0.0586 0.05542,-0.13039 0.09449,-0.18899 0.115265,-0.1729 0.120475,-0.009 0.188989,-0.28348 0.01527,-0.0611 0,-0.12599 0,-0.18899 0,-0.18899 0,-0.37798 0,-0.56696 0,-0.067 0.01222,-0.542536 0,-0.566968 -0.01992,-0.03984 -0.07457,-0.05465 -0.09449,-0.09449 -0.01407,-0.02817 0,-0.063 0,-0.09449 0,-0.0315 0,-0.063 0,-0.0945 0,-0.188987 0,-0.377976 0,-0.566962"
       id="path908"
       inkscape:connector-curvature="0" />
    <path
       style="fill:none;stroke:#000000;stroke-width:0.26458335px;stroke-linecap:butt;stroke-linejoin:miter;stroke-opacity:1"
       d="m 79.847471,81.605061 c 0.125995,-0.063 0.251987,-0.125992 0.377979,-0.188989 0.09449,-0.0315 0.194392,-0.04995 0.283479,-0.09449 0.07969,-0.03984 0.109305,-0.149146 0.18899,-0.188987 0.02484,-0.01243 0.328562,0 0.377976,0 0.283482,0 0.566965,0 0.850447,0 0.108352,0 0.280091,-0.02447 0.377976,0 0.152553,0.03814 0.187425,0.09293 0.283482,0.188987 0.0315,0.0315 0.063,0.063 0.09449,0.09449 0.0315,0.0315 0.07457,0.05465 0.09449,0.0945 0.01408,0.02817 -0.01408,0.06632 0,0.09449 0.01992,0.03984 0.07457,0.05465 0.0945,0.09449 0.01437,0.02876 0,0.240927 0,0.283483 0,0.063 0.01992,0.129225 0,0.188989 -0.02228,0.06681 -0.07222,0.122169 -0.0945,0.188987 -0.0099,0.02988 0,0.063 0,0.0945 -0.0315,0.09449 -0.04995,0.194392 -0.09449,0.28348 -0.01992,0.03984 -0.06978,0.05743 -0.09449,0.0945 -0.342569,0.685136 0.09961,-0.149411 -0.188989,0.283482 -0.03907,0.0586 -0.04469,0.139184 -0.09449,0.188987 -0.0498,0.0498 -0.130387,0.05542 -0.188989,0.09449 -0.03706,0.02471 -0.05743,0.06979 -0.09449,0.0945 -0.0586,0.03907 -0.130384,0.05542 -0.188989,0.09449 -0.03706,0.02471 -0.05465,0.07457 -0.09449,0.09449 -0.02817,0.01407 -0.063,0 -0.09449,0 -0.0315,0 -0.063,0 -0.09449,0 -0.15749,0 -0.314981,0 -0.472471,0 -0.06573,0 -0.438299,0.01709 -0.47247,0 -0.02766,-0.01384 -0.370953,-0.356905 -0.377975,-0.377976 -0.01693,-0.0508 0,-0.297974 0,-0.377976 0,-0.251984 0,-0.503968 0,-0.755952 0,-0.125992 0,-0.251984 0,-0.377976 0,-0.0315 0.02817,-0.08041 0,-0.0945 -0.11616,-0.05808 -0.251984,-0.06299 -0.377979,-0.09449 z"
       id="path912"
       inkscape:connector-curvature="0" />
    <path
       style="fill:none;stroke:#000000;stroke-width:0.26458335px;stroke-linecap:butt;stroke-linejoin:miter;stroke-opacity:1"
       d="m 67.374258,89.353572 c 0.238938,0.05974 0.43552,0.09861 0.661459,0.188989 0.06539,0.02617 0.120658,0.07741 0.188986,0.09449 0.06112,0.01527 0.127217,-0.01236 0.18899,0 0.09767,0.01953 0.185811,0.07496 0.283482,0.0945 0.154432,0.03088 0.316563,-0.02228 0.472469,0 0.207643,0.02966 0.459526,0.121676 0.661459,0.188986 0.09449,0.0315 0.185811,0.07496 0.283482,0.09449 0.154432,0.03089 0.316563,-0.02228 0.472469,0 0.821981,0.117427 -0.01164,0.05437 0.661459,0.188989 0.06177,0.01236 0.125994,0 0.188989,0 0.09449,0.0315 0.186851,0.07034 0.283482,0.09449 0.06112,0.01527 0.125992,0 0.188987,0 0.157491,0 0.314981,0 0.472472,0 0.440973,0 0.881943,0 1.322916,0 0.283483,0 0.566965,0 0.850445,0 0.0945,0 0.189939,0.01336 0.283483,0 0.128566,-0.01836 0.249875,-0.07314 0.377976,-0.09449 0.06214,-0.01035 0.126849,0.01035 0.188989,0 0.272283,-0.04538 0.682482,-0.178499 0.944941,-0.283483 0.06539,-0.02617 0.125992,-0.06299 0.188986,-0.09449 0.063,-0.0315 0.132644,-0.05224 0.18899,-0.09449 0.07127,-0.05346 0.112593,-0.143153 0.188989,-0.18899 0.08541,-0.05125 0.19807,-0.04325 0.28348,-0.09449 0.0764,-0.04584 0.117718,-0.135535 0.188989,-0.188989 0.05635,-0.04226 0.132644,-0.05223 0.188989,-0.09449 0.07127,-0.05345 0.117716,-0.135536 0.188987,-0.18899 0.05635,-0.04226 0.132643,-0.05223 0.188989,-0.09449 0.07127,-0.05345 0.117716,-0.135535 0.188987,-0.188989 0.05634,-0.04226 0.132643,-0.05223 0.188989,-0.09449 0.131649,-0.09874 0.258762,-0.258763 0.377976,-0.377976"
       id="path916"
       inkscape:connector-curvature="0" />
    <path
       style="fill:none;stroke:#000000;stroke-width:0.20505419px;stroke-linecap:butt;stroke-linejoin:miter;stroke-opacity:1"
       d="m 67.999,80.441369 c -0.221729,0.149173 -0.245164,0.146466 -0.439402,0.146466 -0.02441,0 -0.05007,-0.0078 -0.07323,0 -0.05179,0.01727 -0.09468,0.05597 -0.146468,0.07323 -0.128511,0.04283 -0.06954,-0.07693 -0.219701,0.07324 -0.07323,0.07323 -0.146466,0.146465 -0.219701,0.219701 -0.02441,0.02441 -0.05408,0.04451 -0.07323,0.07323 -0.134457,0.201686 -0.03801,0.08155 -0.07323,0.292935 -0.01655,0.09928 -0.05668,0.193653 -0.07323,0.292934 -0.008,0.04816 0,0.09764 0,0.146468 0,0.07323 0,0.146466 0,0.219701 0,0.04777 -0.01444,0.235232 0,0.292935 0.01872,0.07489 0.05451,0.144809 0.07323,0.219701 0.0059,0.02368 -0.0078,0.05007 0,0.07323 0.03452,0.103568 0.111945,0.189366 0.146466,0.292935 0.07267,0.218003 -0.173406,-0.150262 0.07324,0.219701 0.05595,0.08392 0.199357,0.196307 0.292934,0.219701 0.04737,0.01183 0.0991,-0.01183 0.146466,0 0.353643,0.08841 -0.0036,0.0348 0.219701,0.146466 0.01641,0.0082 0.275533,0 0.292935,0 0.146468,0 0.292936,0 0.439402,0 0.04883,0 0.0991,0.01183 0.146468,0 0.212393,-0.05309 0.0857,-0.05713 0.219701,-0.146466 0.04542,-0.03028 0.101048,-0.04296 0.146466,-0.07324 0.124089,-0.08272 0.07066,-0.141313 0.146468,-0.292934 0.01544,-0.03088 0.05408,-0.04451 0.07323,-0.07323 0.08587,-0.128809 0.08692,-0.2173 0.146469,-0.366168 0.04054,-0.101362 0.111942,-0.189367 0.146465,-0.292936 0.0078,-0.02316 0,-0.04883 0,-0.07323 0,-0.04882 0,-0.09764 0,-0.146466 0,-0.07997 0.01579,-0.318808 0,-0.366169 -0.01727,-0.05179 -0.04882,-0.09764 -0.07323,-0.146467 -0.02441,-0.04883 -0.04295,-0.10105 -0.07323,-0.146468 -0.0383,-0.05745 -0.09764,-0.09764 -0.146469,-0.146468 -0.02441,-0.02441 -0.04882,-0.04883 -0.07323,-0.07323 -0.02441,-0.02441 -0.04235,-0.05779 -0.07324,-0.07323 -0.02183,-0.01091 -0.04882,0 -0.07323,0 -0.109002,0 -0.09347,0.01091 -0.219701,-0.07323 -0.02872,-0.01915 -0.04451,-0.05409 -0.07323,-0.07324 -0.01364,-0.0091 -0.288242,-0.141775 -0.292934,-0.146466 -0.01727,-0.01727 0,-0.04883 0,-0.07324 -0.09764,-0.07323 -0.19529,-0.146467 -0.292935,-0.2197 z"
       id="path920"
       inkscape:connector-curvature="0" />
  </g>
  <g
     inkscape:label="Text"
     inkscape:groupmode="layer"
     id="layer1"
     transform="translate(0,134.80002)">
    <text
       xml:space="preserve"
       style="font-style:normal;font-weight:normal;font-size:85.8844223px;line-height:1.25;font-family:sans-serif;letter-spacing:0px;word-spacing:0px;fill:#000000;fill-opacity:1;stroke:none;stroke-width:2.1471107"
       x="133.3756"
       y="2.6932948"
       id="text102"><tspan
         sodipodi:role="line"
         x="133.3756"
         y="2.6932948"
         style="stroke-width:2.1471107"
         id="tspan104">Si</tspan></text>
    <text
       xml:space="preserve"
       style="font-style:normal;font-weight:normal;font-size:36.32579422px;line-height:1.25;font-family:sans-serif;letter-spacing:0px;word-spacing:0px;fill:#000000;fill-opacity:1;stroke:none;stroke-width:0.90814483"
       x="116.23167"
       y="48.195122"
       id="text110"><tspan
         sodipodi:role="line"
         id="tspan108"
         x="116.23167"
         y="48.195122"
         style="stroke-width:0.90814483">Silicon</tspan></text>
    <text
       xml:space="preserve"
       style="font-style:normal;font-weight:normal;font-size:11.26407909px;line-height:1.25;font-family:sans-serif;letter-spacing:0px;word-spacing:0px;fill:#000000;fill-opacity:1;stroke:none;stroke-width:0.281602"
       x="177.53879"
       y="79.044762"
       id="text114"><tspan
         sodipodi:role="line"
         id="tspan112"
         x="177.53879"
         y="79.044762"
         style="font-style:normal;font-variant:normal;font-weight:normal;font-stretch:normal;font-size:11.26406956px;font-family:sans-serif;-inkscape-font-specification:'sans-serif, Normal';font-variant-ligatures:normal;font-variant-caps:normal;font-variant-numeric:normal;font-feature-settings:normal;text-align:center;writing-mode:lr-tb;text-anchor:middle;stroke-width:0.281602">Silicon, its not just a valley</tspan><tspan
         sodipodi:role="line"
         x="179.32906"
         y="93.124863"
         style="font-style:normal;font-variant:normal;font-weight:normal;font-stretch:normal;font-size:11.26406956px;font-family:sans-serif;-inkscape-font-specification:'sans-serif, Normal';font-variant-ligatures:normal;font-variant-caps:normal;font-variant-numeric:normal;font-feature-settings:normal;text-align:center;writing-mode:lr-tb;text-anchor:middle;stroke-width:0.281602"
         id="tspan116">its your lifeline to society </tspan></text>
    <text
       xml:space="preserve"
       style="font-style:normal;font-weight:normal;font-size:10.58333302px;line-height:1.25;font-family:sans-serif;letter-spacing:0px;word-spacing:0px;fill:#000000;fill-opacity:1;stroke:none;stroke-width:0.26458332"
       x="12.095239"
       y="-103.65478"
       id="text120"><tspan
         sodipodi:role="line"
         id="tspan118"
         x="12.095239"
         y="-103.65478"
         style="stroke-width:0.26458332">14</tspan></text>
    <text
       xml:space="preserve"
       style="font-style:normal;font-weight:normal;font-size:10.58333302px;line-height:1.25;font-family:sans-serif;letter-spacing:0px;word-spacing:0px;fill:#000000;fill-opacity:1;stroke:none;stroke-width:0.26458332"
       x="304.64877"
       y="-114.23812"
       id="text124"><tspan
         sodipodi:role="line"
         id="tspan122"
         x="304.64877"
         y="-114.23812"
         style="stroke-width:0.26458332">28.09</tspan></text>
    <text
       xml:space="preserve"
       style="font-style:normal;font-weight:normal;font-size:10.58333302px;line-height:1.25;font-family:sans-serif;letter-spacing:0px;word-spacing:0px;fill:#000000;fill-opacity:1;stroke:none;stroke-width:0.26458332"
       x="107.34524"
       y="136.73807"
       id="text136"><tspan
         sodipodi:role="line"
         x="107.34524"
         y="136.73807"
         style="stroke-width:0.26458332"
         id="tspan138">Cost = $0.96 for 1 pound</tspan></text>
    <text
       xml:space="preserve"
       style="font-style:normal;font-weight:normal;font-size:10.58333302px;line-height:1.25;font-family:sans-serif;letter-spacing:0px;word-spacing:0px;fill:#000000;fill-opacity:1;stroke:none;stroke-width:0.26458332"
       x="150.43452"
       y="83.06546"
       id="text144"><tspan
         sodipodi:role="line"
         id="tspan142"
         x="150.43452"
         y="92.42923"
         style="stroke-width:0.26458332" /></text>
    <path
       style="fill:#ff6600;stroke:#aa4400;stroke-width:0.26458332px;stroke-linecap:butt;stroke-linejoin:miter;stroke-opacity:1"
       d="m 263.31906,-43.586568 c 0.52122,0.353792 1.09774,0.637411 1.56371,1.061356 0.20839,0.189589 0.27546,0.491523 0.41319,0.737281 0.27549,0.491525 0.62324,0.949024 0.82646,1.474564 0.0455,0.117514 -0.0187,0.256899 0.0177,0.377563 0.11473,0.381541 0.28736,0.743222 0.43102,1.114835 0.14368,0.371614 0.23626,0.767282 0.43105,1.114835 0.22209,0.396286 0.53908,0.731344 0.80861,1.09701 0.26951,0.365676 0.53904,0.731345 0.80858,1.097012 0.26954,0.365666 0.61016,0.688378 0.80859,1.097012 0.22694,0.467292 0.28275,1.000191 0.44887,1.492395 0.12745,0.3775 0.30364,0.737331 0.43106,1.114835 0.1661,0.492204 0.22191,1.025102 0.44886,1.492397 0.19843,0.408632 0.53905,0.731343 0.80859,1.09701 0.26953,0.365668 0.53908,0.731336 0.80859,1.097012 0.53908,0.731334 1.11352,1.43786 1.6172,2.194021 0.4623,0.694085 0.83178,1.484096 1.23961,2.211848 0.27548,0.491523 0.59275,0.961858 0.82646,1.474562 0.16524,0.362535 0.26577,0.7523 0.43104,1.114835 0.1168,0.256356 0.29637,0.480929 0.4132,0.73728 0.38643,0.847768 0.47565,1.381913 0.86209,2.22968 0.2337,0.512706 0.62322,0.949024 0.8264,1.474574 0.0455,0.117505 0.0122,0.251696 0.0178,0.377551 0.14369,0.371616 0.26578,0.7523 0.43105,1.114835 0.76517,1.678616 0.0374,0.05068 0.80859,1.097011 0.16717,0.226774 0.24608,0.510507 0.41322,0.737282 0.10578,0.143428 0.30827,0.204299 0.39538,0.35973 0.0615,0.109912 -0.0275,0.260036 0.0177,0.377554 0.10163,0.262766 0.31161,0.47451 0.4132,0.73728 0.0454,0.117525 -0.0275,0.260037 0.0178,0.377562 0.10161,0.262766 0.27547,0.491514 0.4132,0.737282 0.13775,0.245757 0.23374,0.520126 0.41323,0.737282 0.22702,0.2746779 0.59322,0.4228655 0.79074,0.719448 0.22091,0.3315958 0.28738,0.7432297 0.43106,1.1148438 0.28736,0.7432206 0.53156,1.5046115 0.86206,2.2296796 0.23374,0.5126954 0.62326,0.9490246 0.82645,1.4745626 0.0454,0.1175161 -0.0126,0.2553104 0.0178,0.3775529 0.0996,0.3994208 0.61735,2.1387619 0.8799,2.6072307 0.22212,0.3962747 0.58651,0.70073409 0.80861,1.09701164 0.19479,0.34756208 0.23624,0.76727997 0.43103,1.11483306 0.2221,0.3962775 0.58652,0.7007346 0.80859,1.0970114 0.1948,0.3475626 0.23625,0.7672825 0.43106,1.1148458 0.22209,0.396275 0.55674,0.7189337 0.80859,1.0970102 0.15616,0.2344719 0.24604,0.5104966 0.41321,0.7372823 0.10567,0.1434272 0.28967,0.2162912 0.39536,0.3597291 0.16719,0.2267745 0.27548,0.4915139 0.41322,0.7372811 0.41323,0.737283 0.82644,1.4745631 1.23965,2.2118451 0.13772,0.2457578 0.24606,0.5104973 0.41321,0.7372822 0.10577,0.1434289 0.30827,0.2042902 0.3954,0.3597296 0.0615,0.1099113 -0.0187,0.2568883 0.0177,0.3775526 0.11321,0.3762154 0.53285,1.4753693 0.84424,1.8521173 0.22702,0.274689 0.56373,0.444779 0.79078,0.719458 0.35894,0.434322 0.49208,1.021014 0.82641,1.474566 0.10568,0.143428 0.28966,0.2163 0.39539,0.359728 0.33432,0.453559 0.4921,1.021003 0.82641,1.474564 0.10578,0.143428 0.28967,0.2163 0.39539,0.359728 0.16715,0.226775 0.23374,0.520127 0.41324,0.737282 0.227,0.274691 0.59317,0.422867 0.79074,0.719459 0.22089,0.331595 0.26579,0.7523 0.43106,1.114834 0.1587,0.348155 1.02255,1.94922 1.23962,2.211845 0.22703,0.27469 0.56373,0.444771 0.79076,0.719459 0.17949,0.21716 0.25704,0.502807 0.41321,0.737282 0.25186,0.378076 0.55677,0.71893 0.80859,1.09701 0.1562,0.23447 0.23373,0.520121 0.41322,0.737291 0.22702,0.274678 0.56374,0.444759 0.79078,0.719445 0.17946,0.217163 0.27546,0.491516 0.41319,0.737285 0.27549,0.491511 0.60393,0.956897 0.82644,1.474559 0.20514,0.477255 0.22193,1.025104 0.44886,1.492396 0.19845,0.408632 0.58653,0.700735 0.8086,1.096999 0.33172,0.591885 0.53975,1.245814 0.84425,1.852135 1.02405,2.039095 0.51187,0.885357 1.63502,2.571581 0.31237,0.468943 0.55095,0.983038 0.82644,1.474561 0.27545,0.491516 0.55094,0.983049 0.8264,1.474564 0.13776,0.245765 0.31164,0.474511 0.41324,0.737288 0.0454,0.117508 0.0122,0.251692 0.0178,0.377556 0.0266,0.561961 -0.0338,0.484553 0.43101,1.114825 0.1307,0.177294 1.78812,1.685251 1.97694,1.798643 0.0726,0.04359 1.52053,0.660746 1.54588,0.683802 0.20838,0.189589 0.20482,0.547682 0.41323,0.737279 0.20835,0.189591 0.51526,0.227927 0.77291,0.341899 0.25766,0.113975 0.51531,0.227932 0.77293,0.341897 0.51531,0.227932 1.06285,0.393717 1.54588,0.6838 0.15277,0.09173 0.23246,0.287649 0.39539,0.359729 0.23044,0.101927 0.51256,-0.104051 0.75511,-0.03561 2.77785,0.782461 -0.6004,-0.08076 1.16834,0.701633 0.11522,0.05092 0.25629,-0.05198 0.37754,-0.01775 0.27119,0.07641 0.50177,0.265511 0.77296,0.341914 0.21637,0.06095 0.88457,-0.04177 1.13265,-0.05356 0.63935,-0.0302 1.70832,0.01316 2.26533,-0.106929 0.38949,-0.08402 0.7333,-0.316287 1.11484,-0.43104 0.12065,-0.03625 0.25171,-0.0122 0.37756,-0.01775 0.50341,-0.0238 1.01525,0.0234 1.51022,-0.07131 2.56036,-0.489965 -0.0691,-0.26643 1.85212,-0.844259 0.24132,-0.07262 0.5088,0.01745 0.75512,-0.03561 0.50782,-0.10945 0.98836,-0.323078 1.49239,-0.448865 0.12225,-0.0305 0.25171,-0.0123 0.37755,-0.01775 0.49747,-0.149639 1.00789,-0.261538 1.4924,-0.448865 2.69176,-1.04074 -0.59013,0.136921 1.097,-0.808593 0.10993,-0.06161 0.25691,0.01854 0.37757,-0.01776 0.4854,-0.145953 1.39817,-0.509632 1.85213,-0.84424 0.15498,-0.114235 1.00846,-1.026246 1.07918,-1.186156 0.0383,-0.08659 -0.067,-1.420495 -0.0713,-1.510218 -0.0356,-0.755112 -0.0713,-1.510218 -0.10693,-2.265337 -0.0297,-0.629244 0.0292,-1.269044 -0.0892,-1.887769 -0.0976,-0.510225 -0.29923,-0.99493 -0.44887,-1.492395 -0.14964,-0.497463 -0.24373,-1.015148 -0.44887,-1.492393 -0.22249,-0.517655 -0.58028,-0.967718 -0.82641,-1.474565 -0.17405,-0.358395 -0.28737,-0.74323 -0.43106,-1.11485 -0.14366,-0.371603 -0.31626,-0.733283 -0.43102,-1.114825 -0.0363,-0.120656 0.0344,-0.262912 -0.0177,-0.377569 -0.46741,-1.025391 -1.16058,-1.935421 -1.65283,-2.949124 -0.17385,-0.35839 -0.23607,-0.767269 -0.43086,-1.114824 -0.84787,-1.512865 -0.60763,-0.690113 -1.59935,-1.816478 -0.30019,-0.34093 -0.53905,-0.731332 -0.80859,-1.09701 -0.26955,-0.36566 -0.53908,-0.731329 -0.80861,-1.096999 -0.27547,-0.491515 -0.50559,-1.011384 -0.82641,-1.474573 -0.35871,-0.517854 -0.81877,-0.958263 -1.20398,-1.456729 -2.43108,-3.145947 -0.8079,-1.146317 -2.83899,-4.028314 -0.52341,-0.742637 -1.12291,-1.431709 -1.61721,-2.1940218 -4.39011,-6.7705336 1.65517,1.8970458 -2.46142,-4.0461393 -0.26954,-0.3656669 -0.53908,-0.7313437 -0.80862,-1.0970097 -0.14369,-0.371616 -0.21016,-0.7832494 -0.43104,-1.114836 -0.19754,-0.296591 -0.5932,-0.4228671 -0.79076,-0.7194573 -0.22088,-0.3315967 -0.23624,-0.7672825 -0.43105,-1.1148348 -0.22208,-0.3962864 -0.55676,-0.71893504 -0.80858,-1.09701287 -0.15618,-0.23447267 -0.23374,-0.52012424 -0.41322,-0.73728073 -0.22703,-0.27469021 -0.59321,-0.42286674 -0.79077,-0.7194579 -0.22088,-0.3315967 -0.28736,-0.7432306 -0.43104,-1.1148342 -0.26954,-0.3656667 -0.53907,-0.7313449 -0.80859,-1.0970129 -0.26954,-0.3656757 -0.52741,-0.7402271 -0.80861,-1.0970095 -0.38992,-0.4947826 -0.84527,-0.9388782 -1.20397,-1.4567411 -0.32086,-0.4631896 -0.55097,-0.9830392 -0.82641,-1.4745633 -0.55096,-0.9830491 -1.10192,-1.9660883 -1.65285,-2.9491286 -0.27548,-0.491523 -0.52412,-0.99908 -0.82644,-1.474573 -2.3173,-3.143875 0.47115,0.840634 -1.23963,-2.211845 -0.22209,-0.396276 -0.55677,-0.718935 -0.80859,-1.097012 -0.1562,-0.234473 -0.27547,-0.491524 -0.41322,-0.737281 -0.13775,-0.245756 -0.31162,-0.474513 -0.41322,-0.737282 -0.13628,-0.35254 0.0379,-0.765947 -0.0535,-1.132661 -0.0964,-0.386568 -0.28737,-0.743219 -0.43103,-1.114835 -0.14367,-0.371614 -0.26581,-0.752309 -0.43105,-1.114843 -0.1169,-0.256339 -0.33206,-0.467493 -0.41322,-0.737283 -0.14513,-0.482612 0.0505,-1.021269 -0.0713,-1.510217 -0.78588,-3.14887 -0.006,-0.01133 -0.82642,-1.474564 -0.10604,-0.189121 -0.0124,-1.581622 -0.0891,-1.887782 -0.0965,-0.386567 -0.33457,-0.72827 -0.43104,-1.114835 -0.061,-0.244485 -0.0238,-0.503409 -0.0356,-0.755121 -0.0304,-0.643558 0.008,-0.677387 -0.44887,-1.492385 -0.0872,-0.155433 -0.30829,-0.204301 -0.39538,-0.359731 -0.0616,-0.109912 0.0187,-0.256898 -0.0177,-0.377562 -0.11473,-0.381532 -0.3163,-0.733296 -0.43105,-1.114836 -0.0364,-0.120652 -0.0122,-0.251706 -0.0177,-0.377553 -0.14369,-0.371616 -0.26578,-0.752311 -0.43105,-1.114844 -0.2337,-0.512696 -0.55093,-0.983039 -0.82642,-1.474563 -0.13772,-0.245758 -0.24606,-0.510498 -0.41321,-0.737282 -0.31717,-0.430281 -0.84561,-0.667155 -1.18616,-1.079179 -0.17948,-0.217156 -0.27547,-0.491523 -0.41321,-0.737281 -0.13775,-0.245768 -0.31159,-0.474523 -0.41322,-0.737283 -0.0454,-0.117524 0.0276,-0.260045 -0.0178,-0.377561 -0.10163,-0.262757 -0.27546,-0.491513 -0.41319,-0.73728 -0.13776,-0.245757 -0.24607,-0.510498 -0.41323,-0.737282 -0.10568,-0.143428 -0.30826,-0.204291 -0.39538,-0.359731 -0.0615,-0.109912 -0.0123,-0.251694 -0.0178,-0.377552 -0.13776,-0.245757 -0.27549,-0.491524 -0.41321,-0.737282 -0.13773,-0.245757 -0.27547,-0.491524 -0.41321,-0.737283 -0.13774,-0.245756 -0.33206,-0.467493 -0.41323,-0.737281 -0.79934,-2.657655 1.233,1.858838 -0.46669,-1.869949 -0.11681,-0.256357 -0.27546,-0.491524 -0.41321,-0.737282 -0.4132,-0.737282 -0.82642,-1.474563 -1.23962,-2.211855 -0.13775,-0.245757 -0.33209,-0.467492 -0.41322,-0.73728 -0.79935,-2.657647 1.233,1.858847 -0.4667,-1.86995 0.10321,-0.650733 -0.58651,-0.700726 -0.80859,-1.097012 -0.0616,-0.109902 -0.0122,-0.251696 -0.0177,-0.377553 -0.13774,-0.245758 -0.24608,-0.510507 -0.41322,-0.737283 -0.311,-0.421925 -0.87516,-0.657252 -1.18616,-1.079178 -0.16717,-0.226786 -0.24603,-0.510506 -0.41321,-0.737281 -0.3966,-0.538084 -1.18492,-0.900834 -1.58155,-1.438918 -0.16713,-0.226775 -0.24603,-0.510498 -0.41318,-0.737281 -0.10578,-0.14342 -0.26361,-0.23982 -0.39539,-0.359731 -0.26359,-0.239809 -0.52719,-0.479629 -0.79078,-0.719447 -0.26357,-0.23982 -0.48524,-0.535992 -0.79076,-0.71946 -0.24152,-0.145043 -0.53142,-0.196853 -0.77293,-0.341896 -0.30551,-0.183469 -0.46488,-0.575299 -0.79077,-0.719448 -0.11523,-0.05095 -0.25629,0.05201 -0.37757,0.01781 -1.39026,-0.391621 -0.27716,-0.166448 -1.16832,-0.701625 -1.02084,-0.613061 -0.66647,-0.109958 -1.92341,-0.665968 -0.32593,-0.144159 -0.4649,-0.575301 -0.79079,-0.719461 -0.11523,-0.05096 -0.26231,0.06877 -0.37755,0.0178 -0.20641,-0.09133 -0.97801,-0.889801 -1.18616,-1.079177 -0.39538,-0.359729 -0.79076,-0.719459 -1.18614,-1.079189 -0.13181,-0.119909 -0.28968,-0.216301 -0.39537,-0.359729 -0.16718,-0.226774 -0.27548,-0.491515 -0.41322,-0.737281 -0.13775,-0.245758 -0.31163,-0.474513 -0.41322,-0.737283 -0.0454,-0.117513 0.0276,-0.260036 -0.0178,-0.377552 -0.10163,-0.262768 -0.3116,-0.474511 -0.41322,-0.737281 -0.0455,-0.117514 0.0275,-0.260037 -0.0178,-0.377552 -1.04072,-2.691756 0.13702,0.590104 -0.80858,-1.097013 -0.0616,-0.109911 -0.0122,-0.251704 -0.0177,-0.377563 -0.005,-0.125897 -0.0122,-0.251705 -0.0178,-0.377552 -0.008,-0.170037 -0.10531,-1.01507 -0.0536,-1.132662 0.10887,-0.246172 1.51596,-1.666232 1.79865,-1.976918 0.35971,-0.395385 0.71944,-0.790771 1.07917,-1.186145 0.11992,-0.131796 0.21629,-0.289666 0.35972,-0.395386 0.22679,-0.167164 0.54771,-0.204828 0.73729,-0.413219 0.18958,-0.208381 0.19685,-0.531416 0.34191,-0.772939 0.0917,-0.152747 0.23979,-0.263589 0.35971,-0.395384 0.35973,-0.395377 0.71947,-0.790762 1.07917,-1.186147 0.11991,-0.131795 0.26803,-0.242631 0.35974,-0.395386 0.14507,-0.241522 0.19684,-0.531416 0.3419,-0.772937 0.18347,-0.305499 0.5753,-0.464871 0.71945,-0.790771 0.10196,-0.230441 -0.10405,-0.512562 -0.0356,-0.755112 0.0765,-0.27118 0.26553,-0.501766 0.3419,-0.772937 0.10399,-0.368979 -0.15148,-1.110499 -0.0713,-1.510218 0.0783,-0.390661 0.34287,-0.752519 0.32407,-1.150501 -0.0137,-0.281409 -0.31163,-0.474511 -0.41321,-0.737281 -0.0832,-0.215265 -0.0559,-1.183037 -0.0713,-1.510217 -0.0536,-1.132662 -0.10693,-2.265335 -0.16045,-3.398001 -0.015,-0.316158 -0.004,-1.604056 -0.0892,-1.887787 -0.0811,-0.269784 -0.31163,-0.474505 -0.41322,-0.737281 -0.0454,-0.117504 0.0126,-0.255305 -0.0178,-0.377549 -0.12573,-0.504023 -0.28274,-1.000194 -0.44883,-1.492397 -0.25483,-0.754994 -0.63258,-1.466593 -0.86211,-2.229682 -0.0364,-0.120638 0.0126,-0.255305 -0.0177,-0.377553 -0.17703,-0.709246 -0.55806,-1.901139 -0.8799,-2.607229 -0.2337,-0.512697 -0.59273,-0.961864 -0.82644,-1.474562 -0.16524,-0.362532 -0.23625,-0.76728 -0.43103,-1.114849 -0.22211,-0.396263 -0.53907,-0.731335 -0.80861,-1.097009 -0.26952,-0.36567 -0.5084,-0.75605 -0.80858,-1.09701 -0.471,-0.53491 -1.12751,-0.88953 -1.58153,-1.4389 -0.17949,-0.21717 -0.23375,-0.52012 -0.41323,-0.73728 -0.22701,-0.2747 -0.56373,-0.44478 -0.79075,-0.71946 -0.17948,-0.21716 -0.23374,-0.52012 -0.41321,-0.73728 -0.37089,-0.44875 -1.2384,-0.97339 -1.58155,-1.43891 -0.16714,-0.22679 -0.24605,-0.51051 -0.41321,-0.73728 -0.11068,-0.15024 -1.02616,-0.98311 -1.18617,-1.07919 -0.48303,-0.29009 -1.03056,-0.45586 -1.54587,-0.6838 -0.51528,-0.22792 -1.01343,-0.49944 -1.54585,-0.6838 -0.37651,-0.13034 -0.77401,-0.1937 -1.15052,-0.32407 -2.08394,-0.72154 0.68151,0.14557 -1.56368,-1.06134 -0.35095,-0.18865 -0.77403,-0.19372 -1.15052,-0.32407 -0.26622,-0.0922 -0.4967,-0.28654 -0.77293,-0.34191 -0.24707,-0.0495 -0.50342,0.0237 -0.75511,0.0356 -0.50935,-0.10202 -1.02804,-0.16539 -1.52805,-0.30624 -0.54235,-0.15276 -0.99341,-0.57308 -1.54588,-0.68379 -0.24707,-0.0495 -0.50488,0.0653 -0.75512,0.0356 -0.82322,0.39173 -1.58502,-0.50466 -2.30099,-0.64815 -0.24706,-0.0495 -0.50488,0.0653 -0.75511,0.0357 -0.51586,-0.0611 -1.01217,-0.2451 -1.52804,-0.30623 -0.25024,-0.0297 -0.5049,0.0653 -0.75513,0.0356 -5.67447,-0.67251 1.85253,0.0554 -2.67853,-0.63032 -0.24915,-0.0377 -0.50489,0.0653 -0.75511,0.0356 -0.51587,-0.0611 -1.01443,-0.2285 -1.52806,-0.30623 -0.48583,-0.0735 -1.02973,0.1676 -1.51021,0.0713 -0.78131,-0.15659 -1.51969,-0.49156 -2.301,-0.64815 -0.12353,-0.0247 -0.2517,0.0119 -0.37756,0.0178 -0.25169,0.0118 -0.50339,0.0237 -0.75511,0.0356 -0.88097,0.0415 -1.76192,0.0831 -2.64289,0.12479 -0.62925,0.0297 -1.25851,0.0595 -1.88777,0.0891 -0.2517,0.0119 -0.51383,-0.0365 -0.75512,0.0357 -0.26978,0.0811 -0.49151,0.27546 -0.73728,0.4132 -0.24577,0.13774 -0.49152,0.27548 -0.73728,0.41322 -0.36567,0.26953 -0.70075,0.58649 -1.09701,0.80859 -0.34756,0.1948 -0.75231,0.26579 -1.11484,0.43105 -0.25634,0.11686 -0.48092,0.29635 -0.73728,0.4132 -0.24109,0.10991 -1.57092,0.53518 -1.85211,0.84426 -0.1896,0.20839 -0.15233,0.56455 -0.34193,0.77293 -0.37917,0.41677 -1.04024,0.46747 -1.47456,0.82644 -0.27467,0.22702 -0.45197,0.55527 -0.71944,0.79076 -1.73525,1.52784 -0.39482,0.22128 -2.21184,1.23964 -0.39628,0.22209 -0.73134,0.53905 -1.09701,0.8086 -0.36568,0.26952 -0.73135,0.53906 -1.09702,0.80859 -1.38386,1.02003 -0.7913,0.47257 -1.81646,1.59936 -0.23982,0.26358 -0.51932,0.49591 -0.71946,0.79076 -0.40988,0.60388 -0.63625,1.67031 -1.0257,2.31883 -0.53729,0.89468 -0.22331,-0.15172 -1.09701,0.80859 -0.18959,0.20838 -0.19685,0.53141 -0.3419,0.77294 -0.0917,0.152752 -0.28765,0.232437 -0.35972,0.395388 -0.10196,0.230442 0.10405,0.512557 0.0356,0.755108 -0.78247,2.777837 0.0808,-0.600389 -0.70163,1.168326 -0.051,0.115231 0.0425,0.254021 0.0177,0.377563 -0.0783,0.390649 -0.24579,0.759837 -0.32406,1.150487 -0.0248,0.123542 0.0122,0.251712 0.0177,0.377563 0.0122,0.251702 0.0238,0.503399 0.0356,0.755118 0.0297,0.629243 0.0594,1.258514 0.0892,1.887778 0.0122,0.251692 0.0851,0.508035 0.0356,0.755108 -0.1107,0.552469 -0.57306,0.993416 -0.68379,1.545881 -0.0508,0.253458 0.0919,1.945022 0.10692,2.265335 0.0356,0.75512 0.0713,1.510217 0.10694,2.265335 0.0238,0.503409 -0.035,1.017568 0.0713,1.510217 1.20422,5.585855 -0.22976,-1.839046 0.87991,2.607231 0.061,0.244485 0.0238,0.50341 0.0356,0.755121 0.0178,0.377552 0.0356,0.75511 0.0536,1.132661 0.0536,1.132663 0.10693,2.265336 0.16045,3.398003 0.0238,0.5034 -0.0505,1.021253 0.0713,1.510217 0.2454,0.983245 0.84919,1.693709 1.25746,2.589399 0.16526,0.362534 0.2658,0.752309 0.43104,1.114843 0.1169,0.25634 0.29637,0.48093 0.41321,0.737282 0.16526,0.362535 0.21017,0.78324 0.43105,1.114834 0.19755,0.296592 0.56374,0.444771 0.79076,0.71946 0.17949,0.217155 0.20483,0.547692 0.41321,0.737281 0.20839,0.189589 0.56456,0.152308 0.77294,0.341896 0.20839,0.1896 0.24605,0.510508 0.41322,0.737282 0.3966,0.538074 1.18492,0.900845 1.58153,1.438907 0.39277,0.532886 0.27283,0.775274 0.80859,1.097011 0.24152,0.145045 0.53144,0.196853 0.77294,0.341907 0.15276,0.09173 0.24264,0.267985 0.39539,0.35972 0.24152,0.145043 0.53984,0.183684 0.77294,0.341906 0.73714,0.500325 1.26637,1.261207 1.97692,1.798638 0.36229,0.274032 0.77889,0.467743 1.16831,0.701624 0.38944,0.233873 0.76373,0.495102 1.16833,0.701627 0.50187,0.256164 1.07967,0.367358 1.54589,0.683792 0.5897,0.400261 0.99182,1.038647 1.58153,1.438908 0.46621,0.316441 1.04402,0.427636 1.54587,0.683802 0.80922,0.413057 1.50576,1.035724 2.33665,1.403252 0.72872,0.322347 1.54801,0.387429 2.301,0.648145 0.53242,0.184351 1.03059,0.455859 1.54588,0.683794 0.25764,0.113973 0.49669,0.286537 0.77293,0.341905 1.74832,0.350383 -0.42859,-0.744087 1.9056,0.288408 0.16296,0.07212 0.24263,0.267994 0.39539,0.359729 0.48303,0.290087 1.06283,0.393716 1.54587,0.683803 0.48076,0.2887 0.31004,0.430738 0.79077,0.719447 0.24152,0.145045 0.53141,0.196854 0.77294,0.341907 0.15275,0.09173 0.24264,0.267985 0.39538,0.35972 0.48304,0.290087 1.06285,0.393715 1.54589,0.683802 0.15275,0.09173 0.24264,0.267994 0.39539,0.359728 2.80212,1.239477 -0.61577,-0.369791 1.16832,0.701628 0.60205,0.361551 0.94381,0.322241 1.54586,0.683792 0.15276,0.09173 0.2636,0.239819 0.39539,0.35973 0.39539,0.359728 0.79077,0.719459 1.18616,1.079177 0.39538,0.35973 0.79076,0.71946 1.18615,1.079188 0.13179,0.11991 0.28966,0.216302 0.39537,0.35973 0.4154,0.563542 0.41105,0.91101 0.82644,1.474562 0.10568,0.14343 0.26358,0.239821 0.39537,0.359731 0.39539,0.35972 0.79079,0.719448 1.18615,1.079178 0.30884,0.280975 0.85011,0.877373 1.18617,1.079178 0.24152,0.145043 0.56455,0.152307 0.77293,0.341906 0.20838,0.189589 0.20483,0.547682 0.41321,0.737282 0.20838,0.189589 0.53141,0.196853 0.77294,0.341896 0.35452,0.212903 0.8436,0.927667 1.18614,1.079179 0.11523,0.05095 0.25171,-0.01195 0.37758,-0.01781 0.12583,-0.006 0.25171,-0.01194 0.37755,-0.0178 0.77015,-0.03639 1.60583,-0.402242 2.22968,-0.862083 0.14341,-0.105714 0.23981,-0.26358 0.35974,-0.395375"
       id="path146"
       inkscape:connector-curvature="0"
       inkscape:transform-center-x="2.1929714"
       inkscape:transform-center-y="-1.4407505" />
    <path
       style="fill:#d45500;stroke:#aa4400;stroke-width:0.26458332px;stroke-linecap:butt;stroke-linejoin:miter;stroke-opacity:1"
       d="m 271.40301,-72.726491 c 0.80505,-0.242142 1.43708,-0.153128 1.8521,-0.844251 0.14507,-0.241522 0.15232,-0.564557 0.34191,-0.772938 0.023,-0.02534 1.40646,-0.776221 1.47457,-0.826428 0.155,-0.114244 1.00845,-1.026245 1.07919,-1.186145 0.10195,-0.230449 -0.13754,-0.524671 -0.0356,-0.755121 0.0722,-0.162958 0.23982,-0.263592 0.35975,-0.395378 0.41157,-0.452382 0.50539,-0.471807 0.7016,-1.168332 0.0703,-0.249639 -0.10991,-2.326797 -0.1248,-2.642887 -0.0416,-0.880963 -0.0832,-1.761925 -0.12479,-2.642889 -0.0122,-0.251706 0.0253,-0.510625 -0.0356,-0.755111 -0.23335,-0.934995 -0.79296,-1.760593 -1.25746,-2.589407 -0.13774,-0.245757 -0.29636,-0.48093 -0.41322,-0.737282 -0.16523,-0.362529 -0.23623,-0.767287 -0.43104,-1.114837 -0.0871,-0.155443 -0.28966,-0.216305 -0.39537,-0.35973 -1.49802,-2.672857 0.42615,0.57818 -0.80861,-1.097013 -0.16715,-0.226779 -0.24604,-0.5105 -0.41319,-0.737279 -0.10568,-0.143434 -0.2636,-0.239821 -0.3954,-0.359722 -0.13773,-0.245756 -0.24605,-0.51051 -0.41321,-0.73728 -0.10568,-0.143434 -0.28967,-0.216305 -0.3954,-0.359732 -0.33429,-0.453558 -0.46744,-1.040251 -0.82641,-1.47457 -0.22702,-0.274685 -0.57932,-0.432599 -0.79076,-0.719452 -0.0748,-0.101448 0.0275,-0.26003 -0.0177,-0.377553 -0.10162,-0.262768 -0.27548,-0.491534 -0.41321,-0.737281 -0.13775,-0.245767 -0.23374,-0.520131 -0.41324,-0.737291 -0.22701,-0.274685 -0.52716,-0.479631 -0.79075,-0.719452 -0.2636,-0.239811 -0.52719,-0.479631 -0.79078,-0.719452 -0.26359,-0.239821 -0.4959,-0.519326 -0.79076,-0.719462 -0.23309,-0.158211 -0.53983,-0.18367 -0.77294,-0.341893 -0.29486,-0.200125 -0.47689,-0.550729 -0.79076,-0.719461 -0.35095,-0.18864 -0.79958,-0.13539 -1.15051,-0.32406 -0.31386,-0.16873 -0.52719,-0.47964 -0.79077,-0.71946 -0.98092,-0.89248 -1.54581,-1.4933 -2.74986,-2.14053 -0.49628,-0.26679 -1.03058,-0.45587 -1.54586,-0.68381 -0.77295,-0.34189 -1.54588,-0.68378 -2.31883,-1.0257 -0.51618,-0.22832 -1.02968,-0.45545 -1.54587,-0.68378 -0.25765,-0.11394 -0.50178,-0.26552 -0.77295,-0.34191 -0.12126,-0.0341 -0.25297,0.0367 -0.37754,0.0178 -0.51363,-0.0777 -1.02804,-0.1654 -1.52806,-0.30625 -0.54235,-0.15278 -1.01343,-0.49945 -1.54588,-0.68381 -0.37648,-0.13035 -0.77398,-0.19371 -1.15049,-0.32406 -0.26621,-0.0922 -0.49671,-0.28653 -0.77293,-0.3419 -0.49414,-0.0991 -1.01193,0.14674 -1.51023,0.0713 -0.39393,-0.0597 -0.75655,-0.26445 -1.1505,-0.32407 -0.24915,-0.0377 -0.5034,0.0237 -0.75511,0.0356 -0.50341,0.0238 -1.00682,0.0475 -1.51022,0.0713 -1.38436,0.0653 -2.76875,0.13075 -4.1531,0.19611 -1.38438,0.0653 -2.76875,0.13075 -4.15312,0.19611 -0.49186,0.0233 -1.47169,-0.0149 -1.88778,0.0891 -0.43442,0.10843 -1.43421,0.53621 -1.85212,0.84426 -1.8056,1.33089 1.08614,-0.54013 -0.71945,0.79076 -0.22678,0.16716 -0.51051,0.24605 -0.73729,0.41322 -0.33452,0.24658 -0.62724,0.79718 -0.70162,1.16832 -0.0495,0.24707 0.0851,0.50804 0.0356,0.75511 -0.0553,0.27625 -0.22791,0.5153 -0.34188,0.77294 -0.11393,0.25765 -0.22794,0.5153 -0.34189,0.77294 -0.80182,1.812673 0.15696,-0.45335 -0.66598,1.92343 -0.0922,0.26623 -0.18367,0.539842 -0.3419,0.772948 -0.3303,0.486632 -1.38818,1.525783 -1.79864,1.976909 -0.11991,0.131803 -0.28764,0.232437 -0.35973,0.395388 -0.0509,0.115216 0.0122,0.251711 0.0178,0.377559 0.0177,0.377563 0.0979,0.757318 0.0536,1.132662 -0.0469,0.395653 -0.24577,0.759839 -0.32405,1.150498 -0.0944,0.471158 0.16373,1.396221 0.0892,1.887768 -0.0597,0.393932 -0.24579,0.759838 -0.32409,1.150492 -0.0248,0.12354 0.0425,0.254023 0.0178,0.377562 -0.0783,0.39065 -0.34285,0.75251 -0.32404,1.150491 0.0189,0.397974 0.31626,0.733305 0.43102,1.114844 0.14078,0.468202 -0.0698,1.042003 0.0713,1.510218 0.11472,0.38154 0.3163,0.733301 0.43106,1.114832 0.0363,0.120653 -0.0187,0.256899 0.0177,0.377564 0.11473,0.381532 0.31627,0.733294 0.43103,1.114835 0.14107,0.469018 -0.10545,0.286096 0.0356,0.755121 0.93404,3.105485 -0.0477,-0.454519 0.84425,1.852116 0.0454,0.117515 -0.0187,0.256883 0.0178,0.377552 0.49624,1.649883 0.262,0.574757 0.84426,1.852126 0.16525,0.362534 0.26578,0.7523 0.43104,1.114834 0.1168,0.256358 0.31161,0.474512 0.41321,0.737292 0.0455,0.117504 -0.0275,0.260027 0.0178,0.377552 0.26096,0.674931 0.35622,0.685429 0.80859,1.097012 0.1318,0.119899 0.28968,0.216291 0.39539,0.359719 0.16716,0.226785 0.24605,0.510507 0.41323,0.737291 0.21142,0.286854 0.57933,0.432596 0.79076,0.71945 0.39279,0.532884 0.27284,0.775262 0.8086,1.097011 0.24151,0.145043 0.53141,0.196852 0.77291,0.341896 0.15277,0.09173 0.24265,0.267995 0.3954,0.359729 0.24153,0.145043 0.53142,0.196853 0.77294,0.341896 0.15276,0.09173 0.2636,0.23982 0.3954,0.359729 0.26357,0.23982 0.56372,0.44477 0.79075,0.719459 0.17948,0.217156 0.25703,0.502809 0.41322,0.737282 0.25183,0.378077 0.55676,0.718926 0.80859,1.097012 0.15619,0.234464 0.22704,0.525837 0.41322,0.737281 0.35324,0.401189 0.82495,0.685131 1.18614,1.079179 0.30696,0.334873 0.50165,0.762137 0.80861,1.097011 0.36118,0.394047 0.82495,0.685131 1.18614,1.079178 0.30696,0.334882 0.47259,0.791303 0.80861,1.097011 0.33601,0.305708 0.806,0.427595 1.16831,0.701626 0.42633,0.322459 0.75983,0.75673 1.18616,1.079188 0.36229,0.274031 0.78661,0.455311 1.16831,0.701625 0.52933,0.341571 0.99921,0.781736 1.56371,1.061346 0.60799,0.301162 1.31545,0.364816 1.92344,0.665979 3.75472,1.859861 -0.55514,0.375327 3.10958,1.745148 1.29837,0.485313 1.21899,0.219187 2.67855,0.630312 0.27117,0.07641 0.50673,0.249722 0.77293,0.341897 0.75299,0.260716 1.57226,0.325799 2.301,0.648146 0.16294,0.07211 0.23243,0.287651 0.39538,0.359721 0.11522,0.05095 0.2517,-0.01195 0.37755,-0.0178 0.12586,-0.0061 0.25171,-0.01194 0.37756,-0.01781 0.88095,-0.04157 1.76192,-0.08314 2.64289,-0.124788 0.2626,-0.01239 1.75446,-0.01443 1.88777,-0.08915 0.15545,-0.08716 0.23981,-0.263579 0.35973,-0.395374 0.11991,-0.131797 0.23982,-0.263592 0.35973,-0.395387 0.28097,-0.308825 0.87737,-0.850101 1.07918,-1.186157 0.14503,-0.241521 0.19684,-0.531415 0.34191,-0.772937 0.0916,-0.152747 0.28765,-0.232436 0.35971,-0.395385 0.10195,-0.230442 -0.0851,-0.508041 -0.0356,-0.755111 0.0784,-0.39066 0.24579,-0.759841 0.32409,-1.150501 0.0248,-0.123531 -0.052,-0.25628 -0.0177,-0.377554 0.0764,-0.271169 0.22793,-0.515295 0.3419,-0.772937 0.11393,-0.257646 0.19685,-0.531416 0.34192,-0.772938 0.0917,-0.152759 0.28764,-0.232436 0.3597,-0.395386 0.051,-0.115227 -0.0519,-0.256288 -0.0178,-0.377553 0.0765,-0.27118 0.22794,-0.515294 0.34192,-0.772936 0.11393,-0.257657 0.18368,-0.539846 0.3419,-0.772949 0.20011,-0.294856 0.51931,-0.495907 0.71943,-0.790761 0.31645,-0.466209 0.39374,-1.062843 0.68381,-1.545875 0.0918,-0.152755 0.26799,-0.242644 0.35973,-0.395387 0.14506,-0.241521 0.18368,-0.539834 0.3419,-0.772939 0.20012,-0.294854 0.47965,-0.52718 0.71944,-0.79077 0.35972,-0.395385 0.71946,-0.79077 1.0792,-1.186158 0.11988,-0.131784 0.36812,-0.217397 0.35971,-0.395374 -0.0188,-0.397977 -0.28736,-0.743231 -0.43103,-1.114844 z"
       id="path148"
       inkscape:connector-curvature="0"
       inkscape:transform-center-x="28.031527"
       inkscape:transform-center-y="-48.468197" />
  </g>
  <g
     inkscape:groupmode="layer"
     id="layer3"
     inkscape:label="Other"
     sodipodi:insensitive="true">
    <rect
       style="opacity:1;vector-effect:none;fill:#ffffff;fill-opacity:1;stroke:#ffffff;stroke-width:2.5999999;stroke-linecap:butt;stroke-linejoin:miter;stroke-miterlimit:4;stroke-dasharray:none;stroke-dashoffset:0;stroke-opacity:1"
       id="rect4982"
       width="278.94644"
       height="486.07736"
       x="-280.45834"
       y="-28.574999" />
    <rect
       style="opacity:1;vector-effect:none;fill:#ffffff;fill-opacity:1;stroke:#ffffff;stroke-width:2.5999999;stroke-linecap:butt;stroke-linejoin:miter;stroke-miterlimit:4;stroke-dasharray:none;stroke-dashoffset:0;stroke-opacity:1"
       id="rect4982-3"
       width="278.94644"
       height="486.07736"
       x="-281.17886"
       y="-427.11203"
       transform="rotate(90.153524)" />
    <rect
       style="opacity:1;vector-effect:none;fill:#ffffff;fill-opacity:1;stroke:#ffffff;stroke-width:2.5999999;stroke-linecap:butt;stroke-linejoin:miter;stroke-miterlimit:4;stroke-dasharray:none;stroke-dashoffset:0;stroke-opacity:1"
       id="rect4982-1"
       width="278.94644"
       height="486.07736"
       x="359.45535"
       y="-24.417252" />
    <rect
       style="opacity:1;vector-effect:none;fill:#ffffff;fill-opacity:1;stroke:#ffffff;stroke-width:2.5999999;stroke-linecap:butt;stroke-linejoin:miter;stroke-miterlimit:4;stroke-dasharray:none;stroke-dashoffset:0;stroke-opacity:1"
       id="rect4982-3-7"
       width="278.94644"
       height="486.07736"
       x="436.17758"
       y="-420.97968"
       transform="rotate(90.153524)" />
  </g>
</svg>
